<svg xmlns="http://www.w3.org/2000/svg" xmlns:xlink="http://www.w3.org/1999/xlink" width="144.75" height="144.774" viewBox="0 0 144.75 144.774">
  <defs>
    <linearGradient id="linear-gradient" x1="0.5" x2="0.5" y2="1" gradientUnits="objectBoundingBox">
      <stop offset="0" stop-color="#fff"/>
      <stop offset="1" stop-color="#e9e9e9"/>
    </linearGradient>
  </defs>
  <g id="Grupo_1004851" data-name="Grupo 1004851" transform="translate(-285 -2347.681)">
    <circle id="Elipse_5330" data-name="Elipse 5330" cx="68" cy="68" r="68" transform="translate(285 2347.681)" fill="url(#linear-gradient)"/>
    <g id="empleado-del-mes" transform="translate(298.912 2363.681)">
      <g id="Grupo_901524" data-name="Grupo 901524" transform="translate(0.088 0)">
        <g id="Grupo_901520" data-name="Grupo 901520" transform="translate(0)">
          <ellipse id="Elipse_5263" data-name="Elipse 5263" cx="53.251" cy="53.169" rx="53.251" ry="53.169" fill="#98db7c"/>
        </g>
        <g id="Grupo_901521" data-name="Grupo 901521" transform="translate(0 50.916)">
          <path id="Trazado_625583" data-name="Trazado 625583" d="M23.489,261.51l2.618-.751-2.147-3.325A53.257,53.257,0,0,1,.133,215.274,53.214,53.214,0,0,0,23.489,261.51Z" transform="translate(-0.088 -215.274)" fill="#82d361"/>
          <path id="Trazado_625584" data-name="Trazado 625584" d="M365.616,215.275a53.24,53.24,0,0,1-24.746,42.753l-1.447,3.376,1.807.788a53.218,53.218,0,0,0,24.385-46.916Z" transform="translate(-259.164 -215.275)" fill="#82d361"/>
        </g>
        <path id="Trazado_625585" data-name="Trazado 625585" d="M136.582,317.6H123.158a22.623,22.623,0,0,0-22.148,17.958l2.662,3.912c18.337,8.632,34.082,9.878,52.972.289l2.2-3.608A22.62,22.62,0,0,0,136.582,317.6Z" transform="translate(-77.14 -242.479)" fill="#8bcaff"/>
        <path id="Trazado_625586" data-name="Trazado 625586" d="M99.5,393.527a22.6,22.6,0,0,0-.47,4.076,53.031,53.031,0,0,0,21.468,8.468l7.86-1.473,7.885,1.623a53.063,53.063,0,0,0,21.452-7.938v-.127a22.675,22.675,0,0,0-.361-4.037A53.387,53.387,0,0,1,99.5,393.527Z" transform="translate(-75.626 -300.451)" fill="#60b8ff"/>
        <path id="Trazado_625587" data-name="Trazado 625587" d="M208.051,325.543l-4.119,2.129-4.119-2.129-1.8-7.947h11.831Z" transform="translate(-151.203 -242.479)" fill="#c61926"/>
        <path id="Trazado_625588" data-name="Trazado 625588" d="M194.217,371.622l11.488.152,1.415-2.172L204.068,351.2H195.83L192.8,369.467Z" transform="translate(-147.22 -268.131)" fill="#ff4755"/>
        <path id="Trazado_625589" data-name="Trazado 625589" d="M190.505,428.451l-.71,4.284a53.636,53.636,0,0,0,15.745.152l-.713-4.3A53.636,53.636,0,0,1,190.505,428.451Z" transform="translate(-144.926 -327.115)" fill="#fc2b3a"/>
        <path id="Trazado_625590" data-name="Trazado 625590" d="M127.025,213.114l-2.129-4.2a6.222,6.222,0,0,0-.633-.032,6.125,6.125,0,0,0-5.715,3.915,6.1,6.1,0,0,0,4.432,5.923l1.916-2.039Z" transform="translate(-90.529 -159.476)" fill="#f4b184"/>
        <path id="Trazado_625591" data-name="Trazado 625591" d="M122.956,229.351a6.123,6.123,0,0,1-5.713-3.916,6.112,6.112,0,0,0,5.713,8.31,6.185,6.185,0,0,0,.816-.054l2.2-2.471-2.385-1.9A6.014,6.014,0,0,1,122.956,229.351Z" transform="translate(-89.222 -172.116)" fill="#eaa678"/>
        <path id="Trazado_625592" data-name="Trazado 625592" d="M291.665,213.114l2.129-4.2a6.222,6.222,0,0,1,.633-.032,6.125,6.125,0,0,1,5.715,3.915,6.1,6.1,0,0,1-4.432,5.923l-1.916-2.039Z" transform="translate(-222.702 -159.476)" fill="#f4b184"/>
        <path id="Trazado_625593" data-name="Trazado 625593" d="M293.6,229.351a6.123,6.123,0,0,0,5.713-3.916,6.112,6.112,0,0,1-5.713,8.31,6.184,6.184,0,0,1-.816-.054l-2.2-2.471,2.385-1.9a6.014,6.014,0,0,0,.633.033Z" transform="translate(-221.874 -172.116)" fill="#eaa678"/>
        <path id="Trazado_625594" data-name="Trazado 625594" d="M145.4,138.725v24.041a18.362,18.362,0,0,0,36.724,0V138.725Z" transform="translate(-111.029 -105.914)" fill="#ffc89f"/>
        <path id="Trazado_625595" data-name="Trazado 625595" d="M163.759,249.125A18.348,18.348,0,0,1,145.4,230.792v4.395a18.362,18.362,0,0,0,36.724,0v-4.395A18.348,18.348,0,0,1,163.759,249.125Z" transform="translate(-111.029 -176.206)" fill="#f7bc94"/>
        <path id="Trazado_625596" data-name="Trazado 625596" d="M156.006,82.747a10.658,10.658,0,0,0-3.69-7.678,12.609,12.609,0,0,0-7.834-2.615c-1.995-1.776-8.559-6.731-17.362-4.2a35.054,35.054,0,0,0-8.973,4.209c-3.7,2.242-6.623,4.013-12.609,3.253a1.833,1.833,0,0,0-2.061,1.941c.164,2.4,1.573,6.443,5.53,8a10.084,10.084,0,0,1-5.321,1.147,1.911,1.911,0,0,0-.25.01s-.018,6.093,10.058,8.314c4.381.965,11.363-.682,16.2-3.629a5.657,5.657,0,0,0,6.055,2.478c2.842-.7,5.467-3.337,7.455-4.781a19.99,19.99,0,0,0,5.987,5.937,1.838,1.838,0,0,0,2-.137C151.418,94.815,156.435,88.22,156.006,82.747Z" transform="translate(-78.992 -51.571)" fill="#7b7179"/>
        <g id="Grupo_901522" data-name="Grupo 901522" transform="translate(22.805 31.043)">
          <path id="Trazado_625597" data-name="Trazado 625597" d="M123.978,152.078l.011-.049a1.039,1.039,0,0,0-1.631-1.072,24.13,24.13,0,0,1-13.608,4.592c-.1,0-.177,0-.232,0a5.393,5.393,0,0,1-1.4-.223c-3.745-1.114-7.193-4.4-8.968-6.333a1.829,1.829,0,0,0-1.249,2.948c.2.252,4.911,6.2,10.217,7.78a5.385,5.385,0,0,0,1.4.223c.055,0,.133,0,.232,0a24.079,24.079,0,0,0,15.651-6.269A1.829,1.829,0,0,1,123.978,152.078Z" transform="translate(-96.508 -144.795)" fill="#726a71"/>
          <path id="Trazado_625598" data-name="Trazado 625598" d="M240.744,131.252c-.7,6.932-4.61,9.962-4.806,10.11a1.838,1.838,0,0,1-2,.137,19.478,19.478,0,0,1-5.419-5.192,1.051,1.051,0,0,0-1.569-.125c-4.281,4.2-10.683,4.53-10.971,4.557a1.838,1.838,0,0,1-1.538-.606,5.115,5.115,0,0,1,.456,3.054,1.83,1.83,0,0,0,1.96,2.216,17.53,17.53,0,0,0,10.921-5.72c1.432,2.039,3.7,4.841,6.161,6.211a1.838,1.838,0,0,0,2-.137c.233-.176,5.731-4.437,4.808-14.5C240.74,131.252,240.751,131.252,240.744,131.252Z" transform="translate(-186.55 -131.252)" fill="#726a71"/>
        </g>
        <path id="Trazado_625599" data-name="Trazado 625599" d="M369.57,344.738a22.041,22.041,0,0,0-43.8.453c-.075.741-.114,22.164,21.925,22.164C369.829,367.355,369.679,345.625,369.57,344.738Z" transform="translate(-248.735 -248.442)" fill="#ff4755"/>
        <path id="Trazado_625600" data-name="Trazado 625600" d="M347.356,429.138a22.041,22.041,0,0,1-21.93-19.841q-.108,1.084-.109,2.2a22.039,22.039,0,0,0,44.078,0q0-1.113-.109-2.2A22.041,22.041,0,0,1,347.356,429.138Z" transform="translate(-248.395 -312.491)" fill="#fc2b3a"/>
        <path id="Trazado_625601" data-name="Trazado 625601" d="M383.559,368.586l1.907,3.864a2.087,2.087,0,0,0,1.572,1.142l4.264.62a2.087,2.087,0,0,1,1.157,3.56l-3.085,3.008a2.088,2.088,0,0,0-.6,1.848l.615,3.585h-15.4l.615-3.585a2.088,2.088,0,0,0-.6-1.848l-3.086-3.008a2.087,2.087,0,0,1,1.157-3.56l4.264-.62a2.088,2.088,0,0,0,1.572-1.142l1.907-3.864A2.087,2.087,0,0,1,383.559,368.586Z" transform="translate(-282.726 -280.521)" fill="#fff5f5"/>
        <g id="Grupo_901523" data-name="Grupo 901523" transform="translate(91.115 101.914)">
          <path id="Trazado_625602" data-name="Trazado 625602" d="M400.871,434.671l-6.729-3.538a2.087,2.087,0,0,0-1.943,0l-6.729,3.538-.114.662a2.087,2.087,0,0,0,3.029,2.2l3.814-2.005a2.087,2.087,0,0,1,1.943,0l3.814,2.005a2.087,2.087,0,0,0,3.029-2.2Z" transform="translate(-385.325 -430.894)" fill="#efe2dd"/>
        </g>
      </g>
      <g id="Grupo_901526" data-name="Grupo 901526" transform="translate(42.017 49.744)">
        <path id="Trazado_625603" data-name="Trazado 625603" d="M201.177,261.982c4.758,0,6.631-2.947,7.078-3.811a1.834,1.834,0,0,0-1.6-2.741,1.842,1.842,0,0,0-1.685,1.1c-.851,1.766-3.67,1.787-3.79,1.787s-2.942-.021-3.792-1.79a1.843,1.843,0,0,0-3.526.745,1.823,1.823,0,0,0,.241.905C194.548,259.038,196.422,261.982,201.177,261.982Z" transform="translate(-189.958 -244.761)" fill="#ff4755"/>
        <g id="Grupo_901525" data-name="Grupo 901525">
          <path id="Trazado_625604" data-name="Trazado 625604" d="M179.207,210.32a1.837,1.837,0,0,0-1.84,1.835v4.118a1.84,1.84,0,0,0,3.681,0v-4.118A1.838,1.838,0,0,0,179.207,210.32Z" transform="translate(-177.367 -210.32)" fill="#726a71"/>
          <path id="Trazado_625605" data-name="Trazado 625605" d="M254.709,218.108a1.838,1.838,0,0,0,1.84-1.835v-4.118a1.84,1.84,0,0,0-3.681,0v4.118A1.837,1.837,0,0,0,254.709,218.108Z" transform="translate(-235.011 -210.32)" fill="#726a71"/>
        </g>
      </g>
    </g>
    <g id="empleado-del-mes-2" data-name="empleado-del-mes" transform="translate(291.162 2353.907)">
      <g id="Grupo_901524-2" data-name="Grupo 901524" transform="translate(0.088 0)">
        <g id="Grupo_901520-2" data-name="Grupo 901520" transform="translate(0)">
          <ellipse id="Elipse_5263-2" data-name="Elipse 5263" cx="60.953" cy="60.858" rx="60.953" ry="60.858" fill="#cee284"/>
        </g>
        <g id="Grupo_901521-2" data-name="Grupo 901521" transform="translate(0 58.28)">
          <path id="Trazado_625583-2" data-name="Trazado 625583" d="M26.873,268.2l3-.86-2.458-3.806A60.959,60.959,0,0,1,.14,215.274,60.91,60.91,0,0,0,26.873,268.2Z" transform="translate(-0.088 -215.274)" fill="#adce32"/>
          <path id="Trazado_625584-2" data-name="Trazado 625584" d="M369.4,215.275a60.94,60.94,0,0,1-28.325,48.936l-1.656,3.864,2.069.9a60.915,60.915,0,0,0,27.912-53.7Z" transform="translate(-247.557 -215.275)" fill="#adce32"/>
        </g>
        <path id="Trazado_625585-2" data-name="Trazado 625585" d="M141.727,317.6H126.361a25.9,25.9,0,0,0-25.351,20.556l3.047,4.477c20.989,9.881,39.012,11.307,60.633.331l2.52-4.13A25.892,25.892,0,0,0,141.727,317.6Z" transform="translate(-73.688 -231.615)" fill="#8bcaff"/>
        <path id="Trazado_625586-2" data-name="Trazado 625586" d="M99.565,393.527a25.872,25.872,0,0,0-.538,4.665,60.7,60.7,0,0,0,24.573,9.692l9-1.686,9.026,1.858a60.737,60.737,0,0,0,24.554-9.086v-.145a25.955,25.955,0,0,0-.413-4.62A61.108,61.108,0,0,1,99.565,393.527Z" transform="translate(-72.242 -286.99)" fill="#60b8ff"/>
        <path id="Trazado_625587-2" data-name="Trazado 625587" d="M209.5,326.692l-4.715,2.437-4.715-2.437-2.056-9.1h13.542Z" transform="translate(-144.433 -231.615)" fill="#c61926"/>
        <path id="Trazado_625588-2" data-name="Trazado 625588" d="M194.422,374.577l13.15.174,1.62-2.486L205.7,351.2h-9.429L192.8,372.11Z" transform="translate(-140.628 -256.118)" fill="#ff4755"/>
        <path id="Trazado_625589-2" data-name="Trazado 625589" d="M190.608,428.451l-.813,4.9a61.4,61.4,0,0,0,18.023.174L207,428.605A61.393,61.393,0,0,1,190.608,428.451Z" transform="translate(-138.437 -312.459)" fill="#fc2b3a"/>
        <path id="Trazado_625590-2" data-name="Trazado 625590" d="M128.252,213.726l-2.437-4.81a7.12,7.12,0,0,0-.725-.037,7.01,7.01,0,0,0-6.542,4.481,6.983,6.983,0,0,0,5.073,6.779l2.193-2.334Z" transform="translate(-86.477 -152.331)" fill="#f4b184"/>
        <path id="Trazado_625591-2" data-name="Trazado 625591" d="M123.842,229.917a7.009,7.009,0,0,1-6.54-4.482,7,7,0,0,0,6.54,9.512,7.077,7.077,0,0,0,.933-.062l2.521-2.828-2.73-2.177A6.886,6.886,0,0,1,123.842,229.917Z" transform="translate(-85.228 -164.404)" fill="#eaa678"/>
        <path id="Trazado_625592-2" data-name="Trazado 625592" d="M291.665,213.726l2.437-4.81a7.12,7.12,0,0,1,.725-.037,7.01,7.01,0,0,1,6.541,4.481,6.983,6.983,0,0,1-5.073,6.779l-2.193-2.334Z" transform="translate(-212.728 -152.331)" fill="#f4b184"/>
        <path id="Trazado_625593-2" data-name="Trazado 625593" d="M294.036,229.917a7.009,7.009,0,0,0,6.54-4.482,7,7,0,0,1-6.54,9.512,7.077,7.077,0,0,1-.933-.062l-2.521-2.828,2.73-2.177a6.885,6.885,0,0,0,.724.037Z" transform="translate(-211.938 -164.404)" fill="#eaa678"/>
        <path id="Trazado_625594-2" data-name="Trazado 625594" d="M145.4,138.725v27.519a21.017,21.017,0,0,0,42.035,0V138.725Z" transform="translate(-106.058 -101.169)" fill="#ffc89f"/>
        <path id="Trazado_625595-2" data-name="Trazado 625595" d="M166.414,251.777A21,21,0,0,1,145.4,230.792v5.03a21.017,21.017,0,0,0,42.035,0v-5.03A21,21,0,0,1,166.414,251.777Z" transform="translate(-106.058 -168.311)" fill="#f7bc94"/>
        <path id="Trazado_625596-2" data-name="Trazado 625596" d="M163.609,84.945a12.2,12.2,0,0,0-4.224-8.788,14.433,14.433,0,0,0-8.967-2.993c-2.283-2.033-9.8-7.7-19.873-4.811a40.124,40.124,0,0,0-10.271,4.817c-4.236,2.566-7.581,4.593-14.432,3.724a2.1,2.1,0,0,0-2.359,2.222c.188,2.749,1.8,7.375,6.329,9.154a11.543,11.543,0,0,1-6.09,1.312,2.187,2.187,0,0,0-.286.012s-.02,6.975,11.512,9.516c5.015,1.105,13.006-.78,18.54-4.154a6.475,6.475,0,0,0,6.931,2.836c3.253-.8,6.258-3.82,8.533-5.472,1.639,2.334,4.038,5.227,6.853,6.8a2.1,2.1,0,0,0,2.287-.156C158.358,98.759,164.1,91.21,163.609,84.945Z" transform="translate(-75.457 -49.26)" fill="#7b7179"/>
        <g id="Grupo_901522-2" data-name="Grupo 901522" transform="translate(26.103 35.533)">
          <path id="Trazado_625597-2" data-name="Trazado 625597" d="M127.951,152.525l.012-.057a1.189,1.189,0,0,0-1.866-1.227,27.62,27.62,0,0,1-15.576,5.257c-.113,0-.2,0-.265,0a6.173,6.173,0,0,1-1.607-.255c-4.287-1.276-8.233-5.041-10.265-7.249a2.093,2.093,0,0,0-1.429,3.375c.227.289,5.622,7.1,11.694,8.9a6.164,6.164,0,0,0,1.607.255c.063,0,.152,0,.265,0a27.561,27.561,0,0,0,17.915-7.175A2.093,2.093,0,0,1,127.951,152.525Z" transform="translate(-96.508 -144.189)" fill="#726a71"/>
          <path id="Trazado_625598-2" data-name="Trazado 625598" d="M244.548,131.253c-.8,7.934-5.276,11.4-5.5,11.572a2.1,2.1,0,0,1-2.287.156,22.3,22.3,0,0,1-6.2-5.943,1.2,1.2,0,0,0-1.8-.143c-4.9,4.8-12.228,5.185-12.557,5.215a2.1,2.1,0,0,1-1.761-.694,5.855,5.855,0,0,1,.522,3.5,2.095,2.095,0,0,0,2.243,2.537c.352-.032,7.663-.775,12.5-6.547,1.639,2.334,4.236,5.541,7.052,7.109a2.1,2.1,0,0,0,2.287-.156c.267-.2,6.56-5.079,5.5-16.6C244.543,131.253,244.556,131.253,244.548,131.253Z" transform="translate(-182.516 -131.252)" fill="#726a71"/>
        </g>
        <path id="Trazado_625599-2" data-name="Trazado 625599" d="M375.906,347.534a25.229,25.229,0,0,0-50.134.519c-.086.848-.13,25.369,25.1,25.369C376.2,373.422,376.03,348.549,375.906,347.534Z" transform="translate(-237.594 -237.311)" fill="#ff4755"/>
        <path id="Trazado_625600-2" data-name="Trazado 625600" d="M350.543,432.008a25.229,25.229,0,0,1-25.1-22.711q-.123,1.241-.125,2.515a25.226,25.226,0,0,0,50.453,0q0-1.273-.125-2.515A25.229,25.229,0,0,1,350.543,432.008Z" transform="translate(-237.27 -298.491)" fill="#fc2b3a"/>
        <path id="Trazado_625601-2" data-name="Trazado 625601" d="M385.479,368.754l2.183,4.423a2.389,2.389,0,0,0,1.8,1.307l4.881.709a2.389,2.389,0,0,1,1.324,4.075l-3.532,3.443a2.39,2.39,0,0,0-.687,2.115l.7,4.1H374.522l.7-4.1a2.39,2.39,0,0,0-.687-2.115l-3.532-3.443a2.389,2.389,0,0,1,1.324-4.075l4.881-.709a2.39,2.39,0,0,0,1.8-1.307l2.183-4.423A2.389,2.389,0,0,1,385.479,368.754Z" transform="translate(-270.062 -267.952)" fill="#fff5f5"/>
        <g id="Grupo_901523-2" data-name="Grupo 901523" transform="translate(104.293 116.653)">
          <path id="Trazado_625602-2" data-name="Trazado 625602" d="M403.12,435.218l-7.7-4.049a2.389,2.389,0,0,0-2.224,0l-7.7,4.049-.13.757a2.389,2.389,0,0,0,3.467,2.519l4.365-2.3a2.389,2.389,0,0,1,2.224,0l4.365,2.3a2.389,2.389,0,0,0,3.467-2.519Z" transform="translate(-385.325 -430.894)" fill="#efe2dd"/>
        </g>
      </g>
      <g id="Grupo_901526-2" data-name="Grupo 901526" transform="translate(48.082 56.939)">
        <path id="Trazado_625603-2" data-name="Trazado 625603" d="M202.235,262.929c5.446,0,7.59-3.373,8.1-4.362a2.1,2.1,0,0,0-1.835-3.137,2.109,2.109,0,0,0-1.929,1.254c-.975,2.021-4.2,2.045-4.338,2.045s-3.368-.024-4.34-2.049a2.11,2.11,0,0,0-4.036.852,2.087,2.087,0,0,0,.275,1.036C194.648,259.56,196.793,262.929,202.235,262.929Z" transform="translate(-189.394 -243.218)" fill="#ff4755"/>
        <g id="Grupo_901525-2" data-name="Grupo 901525">
          <path id="Trazado_625604-2" data-name="Trazado 625604" d="M179.474,210.32a2.1,2.1,0,0,0-2.107,2.1v4.714a2.107,2.107,0,0,0,4.213,0V212.42A2.1,2.1,0,0,0,179.474,210.32Z" transform="translate(-177.367 -210.32)" fill="#726a71"/>
          <path id="Trazado_625605-2" data-name="Trazado 625605" d="M254.976,219.234a2.1,2.1,0,0,0,2.107-2.1V212.42a2.107,2.107,0,0,0-4.213,0v4.714A2.1,2.1,0,0,0,254.976,219.234Z" transform="translate(-232.429 -210.32)" fill="#726a71"/>
        </g>
      </g>
    </g>
  </g>
</svg>
