<svg xmlns="http://www.w3.org/2000/svg" xmlns:xlink="http://www.w3.org/1999/xlink" width="462.896" height="238.912" viewBox="0 0 462.896 238.912">
  <defs>
    <clipPath id="clip-path">
      <rect id="Rectángulo_330070" data-name="Rectángulo 330070" width="14.602" height="42.181" fill="none"/>
    </clipPath>
    <clipPath id="clip-path-2">
      <rect id="Rectángulo_330071" data-name="Rectángulo 330071" width="9.599" height="16.658" fill="none"/>
    </clipPath>
    <clipPath id="clip-path-3">
      <rect id="Rectángulo_330072" data-name="Rectángulo 330072" width="33.922" height="44.776" fill="none"/>
    </clipPath>
    <clipPath id="clip-path-4">
      <rect id="Rectángulo_330073" data-name="Rectángulo 330073" width="10.885" height="5.971" fill="none"/>
    </clipPath>
    <clipPath id="clip-path-5">
      <rect id="Rectángulo_330074" data-name="Rectángulo 330074" width="9.857" height="12.424" fill="none"/>
    </clipPath>
    <clipPath id="clip-path-6">
      <rect id="Rectángulo_330075" data-name="Rectángulo 330075" width="171" height="121" transform="translate(0 0)" fill="#fff" stroke="#707070" stroke-width="1"/>
    </clipPath>
  </defs>
  <g id="Grupo_1004849" data-name="Grupo 1004849" transform="translate(-852.104 -1339.088)">
    <g id="Grupo_908230" data-name="Grupo 908230" transform="translate(852.104 1401.698)">
      <g id="Grupo_907956" data-name="Grupo 907956" transform="translate(0 3.943)">
        <g id="Grupo_907955" data-name="Grupo 907955">
          <path id="Trazado_627998" data-name="Trazado 627998" d="M61.281,461.581a22.15,22.15,0,0,1-2.289-4.262A41.2,41.2,0,0,1,57.1,452.9a22.148,22.148,0,0,1,2.289,4.262C60.413,459.608,61.36,461.581,61.281,461.581Z" transform="translate(-57.094 -452.897)" fill="#263238"/>
        </g>
      </g>
      <g id="Grupo_907958" data-name="Grupo 907958" transform="translate(5.251 0)">
        <g id="Grupo_907957" data-name="Grupo 907957">
          <path id="Trazado_627999" data-name="Trazado 627999" d="M65.288,460.527a55.809,55.809,0,0,1-.947-6.314,44.815,44.815,0,0,1-.552-6.314,55.812,55.812,0,0,1,.947,6.314C65.131,457.686,65.367,460.527,65.288,460.527Z" transform="translate(-63.747 -447.9)" fill="#263238"/>
        </g>
      </g>
      <g id="Grupo_907960" data-name="Grupo 907960" transform="translate(8.807 3.393)">
        <g id="Grupo_907959" data-name="Grupo 907959">
          <path id="Trazado_628000" data-name="Trazado 628000" d="M69.632,452.2a16.355,16.355,0,0,1-.474,4.656,37.6,37.6,0,0,1-.868,4.577,16.354,16.354,0,0,1,.474-4.656A37.607,37.607,0,0,1,69.632,452.2Z" transform="translate(-68.253 -452.2)" fill="#263238"/>
        </g>
      </g>
    </g>
    <g id="Grupo_908229" data-name="Grupo 908229" transform="translate(578.287 -292.507)">
      <path id="Trazado_628473" data-name="Trazado 628473" d="M0,115.2c0,4.472,21.075,8.1,47.073,8.1s47.073-3.625,47.073-8.1-21.075-8.1-47.073-8.1S0,110.731,0,115.2" transform="translate(626.613 1675.104)" fill="#f2e9d6"/>
      <path id="Trazado_628474" data-name="Trazado 628474" d="M42.47,90.68l0,12.66a2.465,2.465,0,0,1-2.634,2.459l-5.176-.356s-.407,4.026-7.808,3.256c0,0,5.678,3.006,1.043,7.657,0,0,13.773.645,18.994-4.678a3.622,3.622,0,0,0,.495-4.333,8.483,8.483,0,0,1-1.289-4.647c.223-3.254.014-11.637.014-11.637Z" transform="translate(646.492 1675.104)" fill="#b85701"/>
      <path id="Trazado_628475" data-name="Trazado 628475" d="M45.215,107.246a8.481,8.481,0,0,1-1.289-4.647c.223-3.254.014-11.637.014-11.637L40.3,90.581l0,12.661a2.439,2.439,0,0,1-.063.544,11.686,11.686,0,0,1-4.982,9.333,18.162,18.162,0,0,1-8.408,3.161c3.381.022,13.551-.295,17.872-4.7a3.622,3.622,0,0,0,.495-4.333" transform="translate(648.645 1675.104)" fill="#cc6101"/>
      <path id="Trazado_628476" data-name="Trazado 628476" d="M85.948,74.469A34.136,34.136,0,0,1,70.192,96.364c-7.924,4.67-17.493,4.5-26.54,3.033C15.977,94.907,1.992,78.156,2.363,62.012c.144-6.285,2.423-14.441,6.2-19.421,4.041-5.325,12.12-11.217,10.762-18.827-.876-4.9-4.692-4.558-7.746-6.87A9.753,9.753,0,0,1,8.391,7.216C10.6-1.52,22.108-1.329,28.241,2.551A17.91,17.91,0,0,1,36.262,18.9c-.618,7.038-5.4,13.45-4.781,20.488.467,5.35,4.008,9.917,7.957,13.49a50.5,50.5,0,0,0,34.73,12.953c5.749-.14,12.321-1.923,14.7-7.239a11.1,11.1,0,0,1-2.92,15.882" transform="translate(627.388 1675.104)" fill="#c9c2b8"/>
      <path id="Trazado_628477" data-name="Trazado 628477" d="M81.664,19.023s9.549,5.612,16.959-1.365l-1.108-3.765Z" transform="translate(541.826 1675.104)" fill="#b35501"/>
      <path id="Trazado_628478" data-name="Trazado 628478" d="M98.99,17.584c4.447-2.522-3.169-6.712-1.848-12.247A38.088,38.088,0,0,1,82.255,18.7,19.758,19.758,0,0,0,98.99,17.584" transform="translate(539.458 1675.104)" fill="#cc6101"/>
      <path id="Trazado_628479" data-name="Trazado 628479" d="M86.761,12.878c.319-.356.647-.682.95-1.029l.459-.513c.159-.168.248-.383.606-.4H88.8a.573.573,0,0,1,.589.482c.06.369-.165.526-.331.72a6.836,6.836,0,0,1-.555.535,5.81,5.81,0,0,1-1.289.838.4.4,0,0,1-.462-.63Z" transform="translate(546.057 1675.104)" fill="#693301"/>
      <path id="Trazado_628480" data-name="Trazado 628480" d="M54.157,95l0,12.66a2.465,2.465,0,0,1-2.634,2.459l-5.176-.356s-.407,4.026-7.808,3.256c0,0,5.678,3.006,1.043,7.657,0,0,13.773.645,18.994-4.678a3.624,3.624,0,0,0,.495-4.334,8.477,8.477,0,0,1-1.289-4.646c.223-3.254.014-11.638.014-11.638Z" transform="translate(623.317 1675.104)" fill="#b85701"/>
      <path id="Trazado_628481" data-name="Trazado 628481" d="M56.9,111.564a8.483,8.483,0,0,1-1.288-4.647c.223-3.254.015-11.637.015-11.637L51.993,94.9l0,12.661a2.439,2.439,0,0,1-.063.544,12.707,12.707,0,0,1-.823,4.071,12.856,12.856,0,0,1-4.16,5.262,18.154,18.154,0,0,1-8.408,3.161c3.381.022,13.552-.295,17.873-4.7a3.624,3.624,0,0,0,.494-4.333" transform="translate(625.463 1675.104)" fill="#cc6101"/>
      <path id="Trazado_628482" data-name="Trazado 628482" d="M80.8,78.72A30.238,30.238,0,0,1,69,90.516c-7.434,4.061-16.31,4.688-24.93,2.77C38.52,92.051,32.2,90.164,27.323,87.062c-4.935-3.136-10.189-7.6-13.135-12.044-4.247-6.4-6.7-13.859-5.056-22.133a38.3,38.3,0,0,0-1.427,9.127c-.356,15.537,12.579,31.632,38.2,36.823,2.313,2.511,6.486,4.177,11.24,4.155a16,16,0,0,0,10.507-3.563,27.232,27.232,0,0,0,7.816-3.064A32.079,32.079,0,0,0,91.017,74.721a30.7,30.7,0,0,1-10.217,4" transform="translate(622.044 1675.104)" fill="#a19c93"/>
      <path id="Trazado_628483" data-name="Trazado 628483" d="M16.184,100.128s2.893-2.021,3.626-4.554c0,0,5.511,1.24,12.553-4.818,0,0-3.839,6.713-16.179,9.372" transform="translate(672.473 1675.104)" fill="#827d76"/>
      <path id="Trazado_628484" data-name="Trazado 628484" d="M58.145,7.216C60.388-1.519,72.072-1.329,78.3,2.551A17.826,17.826,0,0,1,86.442,18.9c-.461,5.172-3.2,10.007-4.377,15-4.918.885-10.492.489-14.418-2.53a11.021,11.021,0,0,0,1.6-7.6c-.889-4.9-4.764-4.558-7.865-6.87a9.669,9.669,0,0,1-3.239-9.678" transform="translate(577.726 1675.104)" fill="#377d5b"/>
      <path id="Trazado_628485" data-name="Trazado 628485" d="M64.788,42.591c1.747-2.268,4.236-4.638,6.413-7.2,1.148,7.431,14.086,5.2,16.852,3.992a16.062,16.062,0,0,0,2.469,7.011,33.144,33.144,0,0,0-5.608,9.25c-4.146,10.406-2.922,22.269,1.639,32.325a50.1,50.1,0,0,0,5.816,9.711C69.612,91.541,58.151,76.533,58.49,62.012c.147-6.285,2.461-14.441,6.3-19.421" transform="translate(571.261 1675.104)" fill="#964801"/>
      <g id="Grupo_908211" data-name="Grupo 908211" transform="translate(651.544 1686.301)" opacity="0.44" style="mix-blend-mode: multiply;isolation: isolate">
        <g id="Grupo_908210" data-name="Grupo 908210" transform="translate(0)">
          <g id="Grupo_908209" data-name="Grupo 908209" clip-path="url(#clip-path)">
            <path id="Trazado_628486" data-name="Trazado 628486" d="M63.895,25.76c-1.919,4-4.377,7.73-6.314,11.725-1.724,3.554-3.011,7.824-1.249,11.359,2.19,4.4,8.32,5.514,12.887,3.7.3-.117.586-.244.872-.378-3.691-3.462-6.866-7.782-7.31-12.787-.624-7.038,4.227-13.451,4.854-20.488a17.254,17.254,0,0,0-1.128-7.7c.122.571.194,1.15.278,1.73.744,5.123-.971,8.83-2.89,12.834" transform="translate(-55.489 -11.196)" fill="#a19c93"/>
          </g>
        </g>
      </g>
      <g id="Grupo_908214" data-name="Grupo 908214" transform="translate(640.272 1692.583)" opacity="0.44" style="mix-blend-mode: multiply;isolation: isolate">
        <g id="Grupo_908213" data-name="Grupo 908213">
          <g id="Grupo_908212" data-name="Grupo 908212" clip-path="url(#clip-path-2)">
            <path id="Trazado_628487" data-name="Trazado 628487" d="M81.526,25.94a7.272,7.272,0,0,0-.453-3.325c-1.365-3.56-5.334-6.026-9.111-4.834,2.759,1.436,5.667,1.821,6.422,5.983.7,3.847-1.055,7.255-3.488,10.372.478-.611,1.854-1.061,2.514-1.533a9.617,9.617,0,0,0,4.116-6.663" transform="translate(-71.961 -17.478)" fill="#a19c93"/>
          </g>
        </g>
      </g>
      <path id="Trazado_628488" data-name="Trazado 628488" d="M22.225,45.457c22.235,3.059,33.55,21.1,47.576,22.732,0,0-5.818,6.218-9.743,7.761,0,0-32.134,14.172-47.129-13.668-4.534-9.709,2.139-17.81,9.3-16.825" transform="translate(639.511 1675.104)" fill="#a19c93"/>
      <path id="Trazado_628489" data-name="Trazado 628489" d="M25.755,43.934c22.348,2.088,29.656,23.74,43.74,24.76a12.1,12.1,0,0,1-13,1.254,16.23,16.23,0,0,0,8.382,2.8S33.393,88.309,17.2,61.148c-4.953-9.5,1.361-17.886,8.554-17.214" transform="translate(636.28 1675.104)" fill="#c9c2b8"/>
      <path id="Trazado_628490" data-name="Trazado 628490" d="M52.686,74.209c-11.078.049-19.634-4.833-25.433-14.51-1.763-3.427-1.851-6.919-.241-9.587a6.36,6.36,0,0,1,5.359-3.24c.185,0,.372.008.558.025,11.387,1.065,18.447,7.582,25.276,13.886a75.676,75.676,0,0,0,8.312,6.987c-2.25.444-11.437-1.847-11.437-1.847-.694-.047,2.7,4.6,8.365,7.007a48.44,48.44,0,0,1-10.759,1.279" transform="translate(628.963 1675.104)" fill="#d9d1c6"/>
      <path id="Trazado_628491" data-name="Trazado 628491" d="M18.515,78.809l11.753-.8S27.183,87.1,11.85,85.982" transform="translate(678.642 1675.104)" fill="#c9c2b8"/>
      <g id="Grupo_908217" data-name="Grupo 908217" transform="translate(629.744 1727.99)" opacity="0.47" style="mix-blend-mode: multiply;isolation: isolate">
        <g id="Grupo_908216" data-name="Grupo 908216" transform="translate(0)">
          <g id="Grupo_908215" data-name="Grupo 908215" clip-path="url(#clip-path-3)">
            <path id="Trazado_628492" data-name="Trazado 628492" d="M58.454,62.012a37.689,37.689,0,0,1,1.45-9.127c-1.67,8.274.822,15.734,5.138,22.133,2.993,4.439,8.333,8.908,13.348,12.044a44.629,44.629,0,0,0,9.9,4.41,69.2,69.2,0,0,0,4.084,6.189C69.23,91.311,58.12,76.309,58.454,62.012" transform="translate(-58.447 -52.885)" fill="#a19c93"/>
          </g>
        </g>
      </g>
      <path id="Trazado_628493" data-name="Trazado 628493" d="M67.669,64.822S66.852,74.66,77.821,81c0,0-6.021.642-9.356-3.154l-1.084,5.168-9.167-15.94Z" transform="translate(585.7 1675.104)" fill="#964801"/>
      <g id="Grupo_908220" data-name="Grupo 908220" transform="translate(639.998 1685.45)" opacity="0.44" style="mix-blend-mode: multiply;isolation: isolate">
        <g id="Grupo_908219" data-name="Grupo 908219">
          <g id="Grupo_908218" data-name="Grupo 908218" clip-path="url(#clip-path-4)">
            <path id="Trazado_628494" data-name="Trazado 628494" d="M77.24,14.456c-2.992.364-5.667-1.4-5.975-3.928-.008-.061-.007-.121-.011-.182a4,4,0,0,0-.275,2c.308,2.533,2.983,4.292,5.975,3.928,2.919-.356,5.055-2.6,4.87-5.064a5.584,5.584,0,0,1-4.584,3.25" transform="translate(-70.95 -10.346)" fill="#a19c93"/>
          </g>
        </g>
      </g>
      <path id="Trazado_628495" data-name="Trazado 628495" d="M80.147,7.292a1.786,1.786,0,1,1-1.794-1.778,1.787,1.787,0,0,1,1.794,1.778" transform="translate(565.107 1675.104)" fill="#121210"/>
      <path id="Trazado_628496" data-name="Trazado 628496" d="M79.283,6.6a.62.62,0,1,1-.623-.617.621.621,0,0,1,.623.617" transform="translate(564.499 1675.104)" fill="#a19c93"/>
    </g>
    <g id="Grupo_908231" data-name="Grupo 908231" transform="translate(1179.637 1484.541)">
      <g id="Grupo_907956-2" data-name="Grupo 907956" transform="translate(0 3.943)">
        <g id="Grupo_907955-2" data-name="Grupo 907955">
          <path id="Trazado_627998-2" data-name="Trazado 627998" d="M61.281,461.581a22.15,22.15,0,0,1-2.289-4.262A41.2,41.2,0,0,1,57.1,452.9a22.148,22.148,0,0,1,2.289,4.262C60.413,459.608,61.36,461.581,61.281,461.581Z" transform="translate(-57.094 -452.897)" fill="#263238"/>
        </g>
      </g>
      <g id="Grupo_907958-2" data-name="Grupo 907958" transform="translate(5.251 0)">
        <g id="Grupo_907957-2" data-name="Grupo 907957">
          <path id="Trazado_627999-2" data-name="Trazado 627999" d="M65.288,460.527a55.809,55.809,0,0,1-.947-6.314,44.815,44.815,0,0,1-.552-6.314,55.812,55.812,0,0,1,.947,6.314C65.131,457.686,65.367,460.527,65.288,460.527Z" transform="translate(-63.747 -447.9)" fill="#263238"/>
        </g>
      </g>
      <g id="Grupo_907960-2" data-name="Grupo 907960" transform="translate(8.807 3.393)">
        <g id="Grupo_907959-2" data-name="Grupo 907959">
          <path id="Trazado_628000-2" data-name="Trazado 628000" d="M69.632,452.2a16.355,16.355,0,0,1-.474,4.656,37.6,37.6,0,0,1-.868,4.577,16.354,16.354,0,0,1,.474-4.656A37.607,37.607,0,0,1,69.632,452.2Z" transform="translate(-68.253 -452.2)" fill="#263238"/>
        </g>
      </g>
    </g>
    <g id="Grupo_908232" data-name="Grupo 908232" transform="translate(1179.637 1484.541)">
      <g id="Grupo_907956-3" data-name="Grupo 907956" transform="translate(0 3.943)">
        <g id="Grupo_907955-3" data-name="Grupo 907955">
          <path id="Trazado_627998-3" data-name="Trazado 627998" d="M61.281,461.581a22.15,22.15,0,0,1-2.289-4.262A41.2,41.2,0,0,1,57.1,452.9a22.148,22.148,0,0,1,2.289,4.262C60.413,459.608,61.36,461.581,61.281,461.581Z" transform="translate(-57.094 -452.897)" fill="#263238"/>
        </g>
      </g>
      <g id="Grupo_907958-3" data-name="Grupo 907958" transform="translate(5.251 0)">
        <g id="Grupo_907957-3" data-name="Grupo 907957">
          <path id="Trazado_627999-3" data-name="Trazado 627999" d="M65.288,460.527a55.809,55.809,0,0,1-.947-6.314,44.815,44.815,0,0,1-.552-6.314,55.812,55.812,0,0,1,.947,6.314C65.131,457.686,65.367,460.527,65.288,460.527Z" transform="translate(-63.747 -447.9)" fill="#263238"/>
        </g>
      </g>
      <g id="Grupo_907960-3" data-name="Grupo 907960" transform="translate(8.807 3.393)">
        <g id="Grupo_907959-3" data-name="Grupo 907959">
          <path id="Trazado_628000-3" data-name="Trazado 628000" d="M69.632,452.2a16.355,16.355,0,0,1-.474,4.656,37.6,37.6,0,0,1-.868,4.577,16.354,16.354,0,0,1,.474-4.656A37.607,37.607,0,0,1,69.632,452.2Z" transform="translate(-68.253 -452.2)" fill="#263238"/>
        </g>
      </g>
    </g>
    <g id="Grupo_908233" data-name="Grupo 908233" transform="translate(1179.637 1484.541)">
      <g id="Grupo_907956-4" data-name="Grupo 907956" transform="translate(0 3.943)">
        <g id="Grupo_907955-4" data-name="Grupo 907955">
          <path id="Trazado_627998-4" data-name="Trazado 627998" d="M61.281,461.581a22.15,22.15,0,0,1-2.289-4.262A41.2,41.2,0,0,1,57.1,452.9a22.148,22.148,0,0,1,2.289,4.262C60.413,459.608,61.36,461.581,61.281,461.581Z" transform="translate(-57.094 -452.897)" fill="#263238"/>
        </g>
      </g>
      <g id="Grupo_907958-4" data-name="Grupo 907958" transform="translate(5.251 0)">
        <g id="Grupo_907957-4" data-name="Grupo 907957">
          <path id="Trazado_627999-4" data-name="Trazado 627999" d="M65.288,460.527a55.809,55.809,0,0,1-.947-6.314,44.815,44.815,0,0,1-.552-6.314,55.812,55.812,0,0,1,.947,6.314C65.131,457.686,65.367,460.527,65.288,460.527Z" transform="translate(-63.747 -447.9)" fill="#263238"/>
        </g>
      </g>
      <g id="Grupo_907960-4" data-name="Grupo 907960" transform="translate(8.807 3.393)">
        <g id="Grupo_907959-4" data-name="Grupo 907959">
          <path id="Trazado_628000-4" data-name="Trazado 628000" d="M69.632,452.2a16.355,16.355,0,0,1-.474,4.656,37.6,37.6,0,0,1-.868,4.577,16.354,16.354,0,0,1,.474-4.656A37.607,37.607,0,0,1,69.632,452.2Z" transform="translate(-68.253 -452.2)" fill="#263238"/>
        </g>
      </g>
    </g>
    <g id="Grupo_908234" data-name="Grupo 908234" transform="translate(1179.637 1484.541)">
      <g id="Grupo_907956-5" data-name="Grupo 907956" transform="translate(0 3.943)">
        <g id="Grupo_907955-5" data-name="Grupo 907955">
          <path id="Trazado_627998-5" data-name="Trazado 627998" d="M61.281,461.581a22.15,22.15,0,0,1-2.289-4.262A41.2,41.2,0,0,1,57.1,452.9a22.148,22.148,0,0,1,2.289,4.262C60.413,459.608,61.36,461.581,61.281,461.581Z" transform="translate(-57.094 -452.897)" fill="#263238"/>
        </g>
      </g>
      <g id="Grupo_907958-5" data-name="Grupo 907958" transform="translate(5.251 0)">
        <g id="Grupo_907957-5" data-name="Grupo 907957">
          <path id="Trazado_627999-5" data-name="Trazado 627999" d="M65.288,460.527a55.809,55.809,0,0,1-.947-6.314,44.815,44.815,0,0,1-.552-6.314,55.812,55.812,0,0,1,.947,6.314C65.131,457.686,65.367,460.527,65.288,460.527Z" transform="translate(-63.747 -447.9)" fill="#263238"/>
        </g>
      </g>
      <g id="Grupo_907960-5" data-name="Grupo 907960" transform="translate(8.807 3.393)">
        <g id="Grupo_907959-5" data-name="Grupo 907959">
          <path id="Trazado_628000-5" data-name="Trazado 628000" d="M69.632,452.2a16.355,16.355,0,0,1-.474,4.656,37.6,37.6,0,0,1-.868,4.577,16.354,16.354,0,0,1,.474-4.656A37.607,37.607,0,0,1,69.632,452.2Z" transform="translate(-68.253 -452.2)" fill="#263238"/>
        </g>
      </g>
    </g>
    <g id="Grupo_908235" data-name="Grupo 908235" transform="translate(1179.637 1484.541)">
      <g id="Grupo_907956-6" data-name="Grupo 907956" transform="translate(0 3.943)">
        <g id="Grupo_907955-6" data-name="Grupo 907955">
          <path id="Trazado_627998-6" data-name="Trazado 627998" d="M61.281,461.581a22.15,22.15,0,0,1-2.289-4.262A41.2,41.2,0,0,1,57.1,452.9a22.148,22.148,0,0,1,2.289,4.262C60.413,459.608,61.36,461.581,61.281,461.581Z" transform="translate(-57.094 -452.897)" fill="#263238"/>
        </g>
      </g>
      <g id="Grupo_907958-6" data-name="Grupo 907958" transform="translate(5.251 0)">
        <g id="Grupo_907957-6" data-name="Grupo 907957">
          <path id="Trazado_627999-6" data-name="Trazado 627999" d="M65.288,460.527a55.809,55.809,0,0,1-.947-6.314,44.815,44.815,0,0,1-.552-6.314,55.812,55.812,0,0,1,.947,6.314C65.131,457.686,65.367,460.527,65.288,460.527Z" transform="translate(-63.747 -447.9)" fill="#263238"/>
        </g>
      </g>
      <g id="Grupo_907960-6" data-name="Grupo 907960" transform="translate(8.807 3.393)">
        <g id="Grupo_907959-6" data-name="Grupo 907959">
          <path id="Trazado_628000-6" data-name="Trazado 628000" d="M69.632,452.2a16.355,16.355,0,0,1-.474,4.656,37.6,37.6,0,0,1-.868,4.577,16.354,16.354,0,0,1,.474-4.656A37.607,37.607,0,0,1,69.632,452.2Z" transform="translate(-68.253 -452.2)" fill="#263238"/>
        </g>
      </g>
    </g>
    <g id="Grupo_908236" data-name="Grupo 908236" transform="translate(1078.637 1360.541)">
      <g id="Grupo_907956-7" data-name="Grupo 907956" transform="translate(0 3.943)">
        <g id="Grupo_907955-7" data-name="Grupo 907955">
          <path id="Trazado_627998-7" data-name="Trazado 627998" d="M61.281,461.581a22.15,22.15,0,0,1-2.289-4.262A41.2,41.2,0,0,1,57.1,452.9a22.148,22.148,0,0,1,2.289,4.262C60.413,459.608,61.36,461.581,61.281,461.581Z" transform="translate(-57.094 -452.897)" fill="#263238"/>
        </g>
      </g>
      <g id="Grupo_907958-7" data-name="Grupo 907958" transform="translate(5.251 0)">
        <g id="Grupo_907957-7" data-name="Grupo 907957">
          <path id="Trazado_627999-7" data-name="Trazado 627999" d="M65.288,460.527a55.809,55.809,0,0,1-.947-6.314,44.815,44.815,0,0,1-.552-6.314,55.812,55.812,0,0,1,.947,6.314C65.131,457.686,65.367,460.527,65.288,460.527Z" transform="translate(-63.747 -447.9)" fill="#263238"/>
        </g>
      </g>
      <g id="Grupo_907960-7" data-name="Grupo 907960" transform="translate(8.807 3.393)">
        <g id="Grupo_907959-7" data-name="Grupo 907959">
          <path id="Trazado_628000-7" data-name="Trazado 628000" d="M69.632,452.2a16.355,16.355,0,0,1-.474,4.656,37.6,37.6,0,0,1-.868,4.577,16.354,16.354,0,0,1,.474-4.656A37.607,37.607,0,0,1,69.632,452.2Z" transform="translate(-68.253 -452.2)" fill="#263238"/>
        </g>
      </g>
    </g>
    <g id="Grupo_908237" data-name="Grupo 908237" transform="translate(1179.637 1484.541)">
      <g id="Grupo_907956-8" data-name="Grupo 907956" transform="translate(0 3.943)">
        <g id="Grupo_907955-8" data-name="Grupo 907955">
          <path id="Trazado_627998-8" data-name="Trazado 627998" d="M61.281,461.581a22.15,22.15,0,0,1-2.289-4.262A41.2,41.2,0,0,1,57.1,452.9a22.148,22.148,0,0,1,2.289,4.262C60.413,459.608,61.36,461.581,61.281,461.581Z" transform="translate(-57.094 -452.897)" fill="#263238"/>
        </g>
      </g>
      <g id="Grupo_907958-8" data-name="Grupo 907958" transform="translate(5.251 0)">
        <g id="Grupo_907957-8" data-name="Grupo 907957">
          <path id="Trazado_627999-8" data-name="Trazado 627999" d="M65.288,460.527a55.809,55.809,0,0,1-.947-6.314,44.815,44.815,0,0,1-.552-6.314,55.812,55.812,0,0,1,.947,6.314C65.131,457.686,65.367,460.527,65.288,460.527Z" transform="translate(-63.747 -447.9)" fill="#263238"/>
        </g>
      </g>
      <g id="Grupo_907960-8" data-name="Grupo 907960" transform="translate(8.807 3.393)">
        <g id="Grupo_907959-8" data-name="Grupo 907959">
          <path id="Trazado_628000-8" data-name="Trazado 628000" d="M69.632,452.2a16.355,16.355,0,0,1-.474,4.656,37.6,37.6,0,0,1-.868,4.577,16.354,16.354,0,0,1,.474-4.656A37.607,37.607,0,0,1,69.632,452.2Z" transform="translate(-68.253 -452.2)" fill="#263238"/>
        </g>
      </g>
    </g>
    <g id="Grupo_908238" data-name="Grupo 908238" transform="translate(1179.637 1484.541)">
      <g id="Grupo_907956-9" data-name="Grupo 907956" transform="translate(0 3.943)">
        <g id="Grupo_907955-9" data-name="Grupo 907955">
          <path id="Trazado_627998-9" data-name="Trazado 627998" d="M61.281,461.581a22.15,22.15,0,0,1-2.289-4.262A41.2,41.2,0,0,1,57.1,452.9a22.148,22.148,0,0,1,2.289,4.262C60.413,459.608,61.36,461.581,61.281,461.581Z" transform="translate(-57.094 -452.897)" fill="#263238"/>
        </g>
      </g>
      <g id="Grupo_907958-9" data-name="Grupo 907958" transform="translate(5.251 0)">
        <g id="Grupo_907957-9" data-name="Grupo 907957">
          <path id="Trazado_627999-9" data-name="Trazado 627999" d="M65.288,460.527a55.809,55.809,0,0,1-.947-6.314,44.815,44.815,0,0,1-.552-6.314,55.812,55.812,0,0,1,.947,6.314C65.131,457.686,65.367,460.527,65.288,460.527Z" transform="translate(-63.747 -447.9)" fill="#263238"/>
        </g>
      </g>
      <g id="Grupo_907960-9" data-name="Grupo 907960" transform="translate(8.807 3.393)">
        <g id="Grupo_907959-9" data-name="Grupo 907959">
          <path id="Trazado_628000-9" data-name="Trazado 628000" d="M69.632,452.2a16.355,16.355,0,0,1-.474,4.656,37.6,37.6,0,0,1-.868,4.577,16.354,16.354,0,0,1,.474-4.656A37.607,37.607,0,0,1,69.632,452.2Z" transform="translate(-68.253 -452.2)" fill="#263238"/>
        </g>
      </g>
    </g>
    <g id="Grupo_908239" data-name="Grupo 908239" transform="translate(1257.637 1550.541)">
      <g id="Grupo_907956-10" data-name="Grupo 907956" transform="translate(0 3.943)">
        <g id="Grupo_907955-10" data-name="Grupo 907955">
          <path id="Trazado_627998-10" data-name="Trazado 627998" d="M61.281,461.581a22.15,22.15,0,0,1-2.289-4.262A41.2,41.2,0,0,1,57.1,452.9a22.148,22.148,0,0,1,2.289,4.262C60.413,459.608,61.36,461.581,61.281,461.581Z" transform="translate(-57.094 -452.897)" fill="#263238"/>
        </g>
      </g>
      <g id="Grupo_907958-10" data-name="Grupo 907958" transform="translate(5.251 0)">
        <g id="Grupo_907957-10" data-name="Grupo 907957">
          <path id="Trazado_627999-10" data-name="Trazado 627999" d="M65.288,460.527a55.809,55.809,0,0,1-.947-6.314,44.815,44.815,0,0,1-.552-6.314,55.812,55.812,0,0,1,.947,6.314C65.131,457.686,65.367,460.527,65.288,460.527Z" transform="translate(-63.747 -447.9)" fill="#263238"/>
        </g>
      </g>
      <g id="Grupo_907960-10" data-name="Grupo 907960" transform="translate(8.807 3.393)">
        <g id="Grupo_907959-10" data-name="Grupo 907959">
          <path id="Trazado_628000-10" data-name="Trazado 628000" d="M69.632,452.2a16.355,16.355,0,0,1-.474,4.656,37.6,37.6,0,0,1-.868,4.577,16.354,16.354,0,0,1,.474-4.656A37.607,37.607,0,0,1,69.632,452.2Z" transform="translate(-68.253 -452.2)" fill="#263238"/>
        </g>
      </g>
    </g>
    <g id="Grupo_908228" data-name="Grupo 908228" transform="translate(-338.267 -183.256)">
      <path id="Trazado_628539" data-name="Trazado 628539" d="M181.417,154.286c0,4.472-11.227,8.1-25.075,8.1s-25.075-3.625-25.075-8.1,11.226-8.1,25.075-8.1,25.075,3.625,25.075,8.1" transform="translate(1085 1538.191)" fill="#f2e9d6"/>
      <path id="Trazado_628540" data-name="Trazado 628540" d="M174.426,148.453c-.216-.072-4.876,4.47-6.814,6.372a2.067,2.067,0,0,1-1.971.525l-3.779-.979.129.125a1.228,1.228,0,0,1-.751,2.1l-8.026.685,7.713.373a2.749,2.749,0,0,1,2.485,3.583l-.366,1.142,2.176-2.112a8.7,8.7,0,0,1,5.9-2.455l1.751-.03-3.393-1.411a.466.466,0,0,1-.144-.767l7.452-7.154Z" transform="translate(1085 1538.191)" fill="#cc6101"/>
      <path id="Trazado_628541" data-name="Trazado 628541" d="M164.261,144.944c-.176-.059-3.964,3.635-5.54,5.181a1.683,1.683,0,0,1-1.6.427l-3.072-.8.1.1a1,1,0,0,1-.611,1.71l-6.526.557,6.271.3a2.234,2.234,0,0,1,2.02,2.913l-.3.928,1.77-1.717a7.071,7.071,0,0,1,4.8-2l1.425-.025-2.76-1.147a.379.379,0,0,1-.117-.623l6.06-5.817Z" transform="translate(1085 1538.191)" fill="#b85701"/>
      <path id="Trazado_628542" data-name="Trazado 628542" d="M190.157,131.012c-.15.011-.3.021-.45.028-4.258.215-4.174.207-8.726-3.526a44.715,44.715,0,0,0-13.546-7.463c-2.416-.855-3.221-2.925-3.546-5.279-.627-4.54-1.875-8.412-5.719-10.756-6.659-4.06-13.348-1.192-15.347,2.924a7.931,7.931,0,0,0,.61,8.357,6.707,6.707,0,0,1,.213,7.715,8.874,8.874,0,0,0-.514.915c-3.425,7.051,3.01,17.241,14.373,22.761s23.351,4.278,26.776-2.773a9.21,9.21,0,0,0,.876-3.522,11.7,11.7,0,0,0,6.361-7.38c.282-1.043-.284-2.081-1.361-2" transform="translate(1085 1538.191)" fill="#e8aa2c"/>
      <path id="Trazado_628543" data-name="Trazado 628543" d="M147.69,107.967a1.638,1.638,0,1,1,1.639,1.639,1.639,1.639,0,0,1-1.639-1.639" transform="translate(1085 1538.191)"/>
      <path id="Trazado_628544" data-name="Trazado 628544" d="M147.792,107.731a1.4,1.4,0,1,1,1.4,1.4,1.4,1.4,0,0,1-1.4-1.4" transform="translate(1085 1538.191)" fill="#291b21"/>
      <path id="Trazado_628545" data-name="Trazado 628545" d="M149.027,107.057a.683.683,0,1,1-.683-.683.683.683,0,0,1,.683.683" transform="translate(1085 1538.191)" fill="#fff"/>
      <path id="Trazado_628546" data-name="Trazado 628546" d="M169.024,133.128a33.11,33.11,0,0,0-7.048-9.829c-6.009-5.443-14.767.47-12.123,8.246a15.793,15.793,0,0,0,2.367,4.08c12.07,15.1,26.271.792,26.271.792-2.958-2.315-9.467-3.289-9.467-3.289" transform="translate(1085 1538.191)" fill="#c28e2a"/>
      <path id="Trazado_628547" data-name="Trazado 628547" d="M169.417,131.666a33.187,33.187,0,0,0-7.255-9.829,7.667,7.667,0,0,0-12.478,8.246,15.715,15.715,0,0,0,2.437,4.08c12.424,15.1,27.04.792,27.04.792-3.045-2.315-9.744-3.289-9.744-3.289" transform="translate(1085 1538.191)" fill="#f0b033"/>
      <path id="Trazado_628548" data-name="Trazado 628548" d="M155.044,133.493c-1.4-1.354-4.869-5.949-4.568-9.562.031-.373.069-.708.111-1.015a7.632,7.632,0,0,0-.9,7.166,15.72,15.72,0,0,0,2.437,4.081c8.6,10.457,18.252,6.814,23.378,3.583-5.29,2.417-12.538,3.421-20.455-4.253" transform="translate(1085 1538.191)" fill="#d49c2d"/>
      <path id="Trazado_628549" data-name="Trazado 628549" d="M192.682,135.767a13.43,13.43,0,0,0-2.55.3,11.151,11.151,0,0,0,1.386-3.05,1.653,1.653,0,0,0-.448-1.723c-1.067,1.627-3.968,5.381-8.632,6.512,0,0-8.778,18.745-37.3-1.389a31.478,31.478,0,0,0,12.364,10.275c7.916,3.846,16.134,4.4,21.55,2.009l-.016.022c10.11-2.071,17.377-13.033,13.643-12.952" transform="translate(1085 1538.191)" fill="#cf992c"/>
      <path id="Trazado_628550" data-name="Trazado 628550" d="M143.132,123.927c-.028.057-.049.116-.076.174a17.7,17.7,0,0,0,1.651-1.483c1.765-1.875,2.343-5.382.636-7.477-.9-1.1-2.212-1.719-3.233-2.686a7.34,7.34,0,0,0,1.323,2.842,6.708,6.708,0,0,1,.214,7.715,8.7,8.7,0,0,0-.515.915" transform="translate(1085 1538.191)" fill="#cf992c"/>
      <path id="Trazado_628551" data-name="Trazado 628551" d="M157.59,104.731a14.5,14.5,0,0,1,2.3,6.3c.4,2.35.691,5.1,2.355,6.947a7.711,7.711,0,0,0,5.384,2.149l-.2-.074c-2.416-.855-3.221-2.924-3.546-5.279-.627-4.54-1.875-8.411-5.719-10.755a14.2,14.2,0,0,0-2.336-1.149,9.845,9.845,0,0,1,1.756,1.863" transform="translate(1085 1538.191)" fill="#cf992c"/>
      <path id="Trazado_628552" data-name="Trazado 628552" d="M153.521,112.086c0,.987-1.182,1.786-2.639,1.786s-2.639-.8-2.639-1.786,1.181-1.786,2.639-1.786,2.639.8,2.639,1.786" transform="translate(1085 1538.191)" fill="#e8b346"/>
      <path id="Trazado_628553" data-name="Trazado 628553" d="M143.587,109.283s2.39,2.253,2.117,3.687a7.8,7.8,0,0,1-7.852-2.321Z" transform="translate(1085 1538.191)" fill="#b35501"/>
      <path id="Trazado_628554" data-name="Trazado 628554" d="M142.654,108.578l-6.191,2.094a31.106,31.106,0,0,0,8.734.512,4.519,4.519,0,0,0-2.543-2.606" transform="translate(1085 1538.191)" fill="#cc6101"/>
      <path id="Trazado_628555" data-name="Trazado 628555" d="M138.977,110.314l1.172-.425a.291.291,0,1,1,.2.548.282.282,0,0,1-.071.016l-1.24.121a.134.134,0,0,1-.059-.26" transform="translate(1085 1538.191)" fill="#693301"/>
    </g>
    <path id="Trazado_628497" data-name="Trazado 628497" d="M263.089,317.522c0,5.615-48.205,10.166-107.67,10.166S47.75,323.136,47.75,317.522s48.205-10.166,107.67-10.166,107.67,4.551,107.67,10.166" transform="translate(889.095 1233.39)" fill="#f2e9d6"/>
    <path id="Trazado_628498" data-name="Trazado 628498" d="M17.608,154.226l17.36,9.117a43.9,43.9,0,0,1,19,19.526l1.207,2.458-12.3,2.015A21.3,21.3,0,0,0,31.315,172.72,45.768,45.768,0,0,1,16.3,160.766s-3.183-4.285-1.268-6.231a2.2,2.2,0,0,1,2.574-.309" transform="translate(880.579 1194.193)" fill="#6b6561"/>
    <path id="Trazado_628499" data-name="Trazado 628499" d="M43.271,171.863a43.942,43.942,0,0,0-9.112-6.38L16.8,156.365s-.677,4.841,19.382,14.949c0,0,6.89,4.389,8.87,10.49,1.546,4.766,4.133-.34.362-7.256Z" transform="translate(881.186 1194.811)" fill="#4f4b47"/>
    <path id="Trazado_628500" data-name="Trazado 628500" d="M39.079,169.839q-.588-.576-1.2-1.13l2.139,2.687c-.277-.511-.594-1.031-.944-1.557" transform="translate(886.574 1197.965)" fill="#d19292"/>
    <path id="Trazado_628501" data-name="Trazado 628501" d="M114.659,193.359c-1.39-1.524-3.012-3.141-4.834-4.81-.3.27-.6.542-.894.827s-.88-.041-.7-.439a12.955,12.955,0,0,1,.65-1.243c-2.089-1.863-4.426-3.78-6.94-5.692a7.4,7.4,0,0,1-1.981,1.278.437.437,0,0,1-.613-.5,12.2,12.2,0,0,1,.814-2.107,131.534,131.534,0,0,0-12.118-7.895,16.658,16.658,0,0,1-2.465,2.7.434.434,0,0,1-.7-.439c.378-1.146.708-2.306,1.022-3.47a103.8,103.8,0,0,0-17.518-7.728c-.373-.122-.739-.234-1.107-.347.054.755.122,1.507.237,2.256a.436.436,0,0,1-.432.526h-.143a.436.436,0,0,1-.407-.333c-.216-.987-.642-1.96-.949-2.947-31.514-8.761-41.108,15.389-41.108,15.389a12.116,12.116,0,0,1,11.177-2.149c-6.288-1.183-9.941,3.008-10.64,5.48,4.03-3.6,11.444-3.239,9.135-2.687-4.943,1.183-8.221,6.878-8.221,6.878a58.2,58.2,0,0,1,9.3-4.3c7.738-12.466,20.076-9.341,24.422-8.884,22.354,4.3,28.372,18.342,44.707,24.5,11.892.86,10.316-3.868,10.316-3.868" transform="translate(883.146 1196.016)" fill="#5e5955"/>
    <path id="Trazado_628502" data-name="Trazado 628502" d="M112.539,193.22c-1.39-1.524-3.012-3.141-4.834-4.81-.3.27-.6.542-.894.827s-.88-.041-.7-.439a12.783,12.783,0,0,1,.65-1.242c-2.088-1.864-4.426-3.782-6.94-5.694a7.4,7.4,0,0,1-1.981,1.278.436.436,0,0,1-.613-.5,12.2,12.2,0,0,1,.814-2.107,131.521,131.521,0,0,0-12.118-7.893,16.65,16.65,0,0,1-2.465,2.7.434.434,0,0,1-.7-.439c.378-1.146.708-2.306,1.022-3.47A103.8,103.8,0,0,0,66.256,163.7c-.373-.122-.74-.234-1.107-.347.054.755.122,1.508.237,2.256a.437.437,0,0,1-.432.527h-.143a.437.437,0,0,1-.407-.334c-.216-.987-.642-1.96-.949-2.947-14.437-4.014-24.271-1.119-30.693,3.2,6.364-.507,14.728.871,25.159,6.618,22.015,4.392,28.067,18.294,44.3,24.418,11.892.859,10.317-3.869,10.317-3.869" transform="translate(885.266 1195.98)" fill="#4f4c48"/>
    <path id="Trazado_628503" data-name="Trazado 628503" d="M210.111,214.187c5.35,8.456,5.871,22.554,5.829,27.547,0,.78-.044,1.517-.1,2.24q2.475-.13,4.953-.2c0-.428,0-.865.021-1.323,2.293-9.17-6.733-44.829-18.122-46.382l-1.476,3.78c3.88,3.474,6.851,9.944,8.9,14.338" transform="translate(928.306 1204.955)" fill="#736c68"/>
    <path id="Trazado_628504" data-name="Trazado 628504" d="M208.8,263.778c1.421,4.018,3.592,7.738,5.02,11.753s2.063,8.566.364,12.475c4.33-2.586,6.369-7.837,6.9-12.854s-.148-10.092.237-15.12c.419-5.487,2.1-10.874,1.9-16.372-.132-3.672-1.469-8.831-4.722-11.043-3.933-2.675-6.8,2.173-8.261,5.258a34.489,34.489,0,0,0-1.435,25.9" transform="translate(929.767 1214.095)" fill="#4f4b47"/>
    <path id="Trazado_628505" data-name="Trazado 628505" d="M133.563,306.088a19.638,19.638,0,0,1-1.725,19.189,12.4,12.4,0,0,0-6,8.728c6.162-.143,10.919-.336,17.081-.48l.21-8.161c-.257-1.954.285-5.655,1.779-6.939a5.955,5.955,0,0,0,1.594-6.856l-7.431-17.38a73.636,73.636,0,0,1-4.8-16.122c-.871-4.924-2.3-12.31-4.565-22.513-4.729-21.28-35.115-18.7-35.115-18.7Z" transform="translate(901.063 1215.352)" fill="#736c68"/>
    <path id="Trazado_628506" data-name="Trazado 628506" d="M119.909,274.438a75.619,75.619,0,0,1,11.318,6.029c1.416.905,2.8,1.854,4.172,2.822-.46-1.8-.857-3.607-1.181-5.435-.871-4.925-2.3-12.311-4.565-22.514-4.729-21.278-35.115-18.7-35.115-18.7l20.212,35.907q2.623.821,5.159,1.89" transform="translate(901.05 1215.297)" fill="#66615c"/>
    <path id="Trazado_628507" data-name="Trazado 628507" d="M167.755,250.656l5.8,35.464c.717,6.878-.429,17.194-4.011,32.383,0,0-2.58,7.738-6.305,11.607a9.084,9.084,0,0,0-4.013,4.3,8.835,8.835,0,0,0-.716,3.941c6.161-.143,9.937-.023,16.1-.166l.314-8.475c-.257-1.961,1.24-5.686,2.722-7a5.952,5.952,0,0,0,1.529-6.8L192.9,268.925s8.8-20.2,4.074-41.482-35.025,8.383-35.025,8.383Z" transform="translate(917.393 1211.008)" fill="#736c68"/>
    <path id="Trazado_628508" data-name="Trazado 628508" d="M169.671,268.608q8.166,11.29,15.706,23.008l6.549-22.416s8.8-20.2,4.074-41.483-35.025,8.383-35.025,8.383l5.8,14.83Z" transform="translate(918.024 1211.078)" fill="#66615c"/>
    <path id="Trazado_628509" data-name="Trazado 628509" d="M53.54,167.284S36.919,167,32.047,187.345L17.991,216.274a12.252,12.252,0,0,0,.3,11.434c1.71,3.055,4.142,6.419,7.166,8.069l2.865-2.58a47.26,47.26,0,0,0,9.458-1.576c6.3-2.006,7.964-18.368,24.789-19.2,14.472-.717,15.749,29.917,35.966,47.428,30.847,26.72,79.954,30.664,113.771,4.3l39.261-13.183s17.482-36.968-3.725-51.584-38.111-3.724-48.082-2.149c-24.5,3.868-77.377,4.943-93.845-5.512-9.389-5.96-36.251-25.621-52.373-24.436" transform="translate(881.167 1197.588)" fill="#8f8681"/>
    <path id="Trazado_628510" data-name="Trazado 628510" d="M55.351,171.594c13.659,4.635,20.893,11.553,33.841,17.78,8.337,4.009,17.3,7.4,26.386,7.849-6.564-1.282-12.042-3.037-15.709-5.365-9.389-5.961-36.251-25.622-52.375-24.437a19.137,19.137,0,0,0-5.762,1.067c2.919.809,11.036,2.229,13.618,3.1" transform="translate(887.558 1197.622)" fill="#7d7571"/>
    <path id="Trazado_628511" data-name="Trazado 628511" d="M32.306,189.859h0a2.485,2.485,0,0,0,1.706-.274l.846-.478s4.154,1.72,6.232-1a4.039,4.039,0,0,0,.431-1.361l2.221-.143a11.5,11.5,0,0,0-7.207-2.143,3.556,3.556,0,0,0-2.111,1.406Z" transform="translate(885.149 1201.987)" fill="#3b3835"/>
    <path id="Trazado_628512" data-name="Trazado 628512" d="M35.354,185.708a.776.776,0,0,0-.814,1.126,3.027,3.027,0,0,0,5.5.352A.819.819,0,0,0,39.393,186c-1.346-.134-2.7-.232-4.039-.294" transform="translate(885.701 1202.308)" fill="#242120"/>
    <path id="Trazado_628513" data-name="Trazado 628513" d="M44.075,212.924c-.993-3.35-3.951-5.708-6.9-7.577s-8.383-3.594-10.457-6.407a7.257,7.257,0,0,1-1.311-4.856l-7.434,15.3a12.248,12.248,0,0,0,.3,11.434c1.711,3.055,4.142,6.419,7.166,8.069l2.866-2.58s5.725.408,9.636-1.4a11.264,11.264,0,0,0,6.326-6.932,10.961,10.961,0,0,0-.187-5.048" transform="translate(881.161 1204.448)" fill="#baafa8"/>
    <path id="Trazado_628514" data-name="Trazado 628514" d="M20.023,214.98a5.379,5.379,0,0,1-1.5-4.069c.105-1.579,1.242-3.92,3.342-3.92a2.819,2.819,0,0,1,1.248.3,2.762,2.762,0,0,1,1.1.994,5.2,5.2,0,0,1,.472.974l.026.065a6.845,6.845,0,0,1,.5,2.455,7.578,7.578,0,0,1-1.3,4.164c-.062.1-.117.192-.159.27l-.884,1.613Z" transform="translate(881.625 1207.746)" fill="#a69c96"/>
    <path id="Trazado_628515" data-name="Trazado 628515" d="M22.78,208.76a1.38,1.38,0,0,0-.555-.508c-1.5-.739-2.522,1.261-2.605,2.473a4.01,4.01,0,0,0,1.1,3l1.549,1.549a6.878,6.878,0,0,0,1.291-3.753,5.481,5.481,0,0,0-.406-1.961,4.454,4.454,0,0,0-.373-.8" transform="translate(881.905 1208.027)" fill="#7d7571"/>
    <path id="Trazado_628516" data-name="Trazado 628516" d="M201.076,248.576c-3.451-7.42-5.7-13.969-5.508-18.236-.611,6.193-8.6,26.313-41.007,27.852-19.172.91-32.937-8.332-35.449-11.5-2.684-3.381-3.708-8.8-4.314-13.018l-.652,18.269c-17.467-6.063-36.506-13.091-47.09-33.109,7.593,17.832,15.588,25.444,18.752,28.185,29.2,25.293,77.651,33.016,117.454,1.725-.614.122-1.554-.3-2.186-.172" transform="translate(894.027 1210.772)" fill="#7d7571"/>
    <path id="Trazado_628517" data-name="Trazado 628517" d="M169.415,228.43q.1-1.034.159-2.124s-.1.811-.159,2.124" transform="translate(920.181 1212.681)" fill="#7d7571"/>
    <path id="Trazado_628518" data-name="Trazado 628518" d="M83.933,240.419l15.262,51.533c.753,2.545,3.1,5.637,4.3,8a61.253,61.253,0,0,1,5.66,24.378,6.839,6.839,0,0,1-2.142,5.171c-2.917,2.733-7.984,8.138-8.891,13.436l18.7-.644-.856-9.587a4.142,4.142,0,0,1,1.828-3.814,6.354,6.354,0,0,0,2.418-7.569c-2.314-5.994-5.807-17.138-5.665-29.491.03-2.551-2.475-49.071-2.9-59.389,0,0-8.792-7.075-32.22-8.794Z" transform="translate(897.187 1212.003)" fill="#8f8681"/>
    <path id="Trazado_628519" data-name="Trazado 628519" d="M174.415,247.327h0l24.073,46.139s-2.866,30.092-7.451,35.537c0,0-10.89,4.871-12.323,14.615h19.2V332.154l1.917-.166a5.72,5.72,0,0,0,5.189-5.041c1.019-8.824,3.4-27.7,5.79-33.768,0,0,6.591-4.871,2.006-14.9,0,0-6.634-16.873-.1-40.922a7.7,7.7,0,0,0-.6-5.606l-.023-.041c-6.193-11.768-21.1-16.737-32.865-10.54a21.47,21.47,0,0,0-3.046,1.933c-7.731,5.912-8.765,8.653-1.773,24.225" transform="translate(920.262 1210.683)" fill="#8f8681"/>
    <path id="Trazado_628520" data-name="Trazado 628520" d="M75.257,231.673l2.461,2a1.88,1.88,0,0,0,2.834-1.353l.4-10.138,4.313,21.052s-3.1-.691-10.008-11.562" transform="translate(896.123 1211.627)" fill="#7d7571"/>
    <path id="Trazado_628521" data-name="Trazado 628521" d="M218.2,265.482c-1.428-4.015-3.6-7.735-5.02-11.753-2.937-8.3-1.9-13.724,1.8-21.693-2.148.849-3.765,3.714-4.745,5.787a34.486,34.486,0,0,0-1.435,25.9c1.421,4.018,3.592,7.738,5.02,11.753s2.063,8.568.364,12.475a13.254,13.254,0,0,0,5.2-6.224c-.124.08-.242.166-.369.242,1.7-3.908.614-12.475-.814-16.49" transform="translate(929.767 1214.145)" fill="#403d39"/>
    <path id="Trazado_628522" data-name="Trazado 628522" d="M38.667,186.536A1.668,1.668,0,1,1,37,184.867a1.669,1.669,0,0,1,1.669,1.669" transform="translate(885.922 1202.093)" fill="#1a1817"/>
    <path id="Trazado_628523" data-name="Trazado 628523" d="M36.328,186.2a.762.762,0,1,1-.762-.762.762.762,0,0,1,.762.762" transform="translate(885.787 1202.239)" fill="#baafa8"/>
    <path id="Trazado_628524" data-name="Trazado 628524" d="M194.112,266.4l-.084-.025c.156.216.084.025.084.025" transform="translate(926.47 1222.918)" fill="#998f8a"/>
    <path id="Trazado_628525" data-name="Trazado 628525" d="M202.907,207.743a23,23,0,0,0-4.839-5.532c-10.252-8.544-25.809-1.367-26.406,11.966-.372,8.3,1.7,19.838,9.7,35.164,3.925,7.513,7.017,13.394,9.456,18,.138-7.261,2.859-17.639,10.817-32.416,4.573-8.49,6.35-18.99,1.267-27.184" transform="translate(920.745 1205.578)" fill="#998f8a"/>
    <path id="Trazado_628526" data-name="Trazado 628526" d="M105.362,214a22.735,22.735,0,0,0-3.235-5.532c-6.856-8.544-17.259-1.366-17.657,11.966-.249,8.3,1.134,19.838,6.488,35.164,2.625,7.513,4.693,13.394,6.324,18,.092-7.261,1.911-17.639,7.234-32.416,3.057-8.49,4.245-18.99.846-27.184" transform="translate(898.47 1207.178)" fill="#998f8a"/>
    <path id="Trazado_628527" data-name="Trazado 628527" d="M29.1,147.22l15.657,11.8a43.9,43.9,0,0,1,15.593,22.339l.792,2.62H48.681c-.35-6.535-2.8-9.779-7.853-14.507-3.524-3.3-9.89-9.013-14.07-16.013,0,0-2.448-4.743-.244-6.355a2.2,2.2,0,0,1,2.59.112" transform="translate(883.434 1192.351)" fill="#8f8681"/>
    <path id="Trazado_628528" data-name="Trazado 628528" d="M51.326,170.033a43.872,43.872,0,0,0-7.962-7.769l-15.657-11.8s-.743,3.019,16.022,17.851c0,0,6.019,5.91,6.986,12.251.756,4.953,4.9-.1,2.291-7.532Z" transform="translate(883.972 1193.302)" fill="#736c68"/>
    <path id="Trazado_628529" data-name="Trazado 628529" d="M51.326,169.953a43.872,43.872,0,0,0-7.962-7.769l-15.657-11.8s-.743,3.019,16.022,17.851c0,0,6.019,5.91,6.986,12.251.756,4.953,4.9-.1,2.291-7.532Z" transform="translate(883.972 1193.281)" fill="#736c68"/>
    <path id="Trazado_628530" data-name="Trazado 628530" d="M51.828,180.669a4.688,4.688,0,0,1-.118-.571c-1.017-6.662-7.077-12.678-7.335-12.932l-.046-.043a132.594,132.594,0,0,1-12.3-12.016l10.4,7.842a42.692,42.692,0,0,1,7.682,7.48l1.578,2.817c1.254,3.654.689,6.382.132,7.423" transform="translate(885.079 1194.489)" fill="#4f4b47"/>
    <path id="Trazado_628531" data-name="Trazado 628531" d="M171.532,232.175c0,9.34-12.722,16.91-28.415,16.91s-28.415-7.571-28.415-16.91,12.722-16.91,28.415-16.91,28.415,7.571,28.415,16.91" transform="translate(906.202 1209.859)" fill="#998f8a"/>
    <path id="Trazado_628532" data-name="Trazado 628532" d="M112.663,308.633H102.332c-2.958,2.908-7.2,7.793-8.019,12.6l18.7-.644L112.156,311a4.129,4.129,0,0,1,.507-2.365" transform="translate(900.992 1233.716)" fill="#4f4b47"/>
    <path id="Trazado_628533" data-name="Trazado 628533" d="M184.841,308.633c-3.2,2.383-7.134,6.365-7.955,11.952h19.2l-.221-11.445Z" transform="translate(922.09 1233.716)" fill="#4f4b47"/>
    <path id="Trazado_628534" data-name="Trazado 628534" d="M125.641,307.258l0,.005a12.478,12.478,0,0,0-4.139,3.928,23.594,23.594,0,0,0-2.638,6.424l18.484-.429-.313-9.929Z" transform="translate(907.264 1233.364)" fill="#403d39"/>
    <path id="Trazado_628535" data-name="Trazado 628535" d="M163.974,307.258l0,.005a12.478,12.478,0,0,0-4.139,3.928,23.593,23.593,0,0,0-2.638,6.424l18.484-.429-.313-9.929Z" transform="translate(917.059 1233.364)" fill="#403d39"/>
    <g id="Grupo_908223" data-name="Grupo 908223" transform="translate(906.585 1420.954)" opacity="0.76">
      <g id="Grupo_908222" data-name="Grupo 908222" transform="translate(0 0)">
        <g id="Grupo_908221" data-name="Grupo 908221" clip-path="url(#clip-path-5)">
          <path id="Trazado_628536" data-name="Trazado 628536" d="M23.648,224.368s5.695-6.687,8.541-12.424a16.249,16.249,0,0,1-1.677,5.426,2.253,2.253,0,0,0,.289,2.588l.016.019A3.2,3.2,0,0,0,33.5,221.24a38.087,38.087,0,0,1-6.983.5s-1.556,1.543-2.874,2.623" transform="translate(-23.648 -211.943)" fill="#7d7571"/>
        </g>
      </g>
    </g>
    <path id="Trazado_628537" data-name="Trazado 628537" d="M70.905,194.3a23.853,23.853,0,0,0-2.059-14.743,20,20,0,0,0-1.553-2.537c-.345-.48-.718-.938-1.1-1.386.526,3.975,1.213,8.456.108,12.3a18.519,18.519,0,0,1-8.966,11.336A43.743,43.743,0,0,1,47,202.845c-3.228,4.763-6.864,8.9-9.469,12.251,1.335,1.981,1.6,4.7,1.525,7.333l2.218-3.176a22.777,22.777,0,0,1,7.183-6.623,34.437,34.437,0,0,1,8.789-2.3c5.74-.285,9.4,4.367,13,11.173-3.248-11.288.593-23.177.657-27.2" transform="translate(886.484 1199.734)" fill="#7d7571"/>
    <path id="Trazado_628538" data-name="Trazado 628538" d="M40.12,209.63a9.228,9.228,0,0,0-1.3-2.652C37.607,209.485,36.3,210.74,35.1,213c1.656,7.277-2.693,8.878-2.924,9.267a12.368,12.368,0,0,0,1.808-.655,11.261,11.261,0,0,0,6.326-6.932,10.962,10.962,0,0,0-.187-5.048" transform="translate(885.115 1207.742)" fill="#a69c96"/>
    <path id="Trazado_628556" data-name="Trazado 628556" d="M880.921,1838.149c10.156-5.875,9.25-3.25,23.5-15.375s5,1.25,5,1.25-31.375,25.25-45.625,22.25S870.765,1844.024,880.921,1838.149Z" transform="translate(90.579 -429.649)" fill="#ffc107"/>
    <path id="Trazado_628557" data-name="Trazado 628557" d="M868.668,1826.7c4.474-2.588,4.074-1.432,10.351-6.772s2.2.551,2.2.551-13.82,11.122-20.1,9.8S864.194,1829.291,868.668,1826.7Z" transform="translate(776.575 -543.457) rotate(22)" fill="#ffc107"/>
    <circle id="Elipse_5332" data-name="Elipse 5332" cx="4" cy="4" r="4" transform="translate(951 1415)" fill="#f0b033"/>
    <ellipse id="Elipse_5333" data-name="Elipse 5333" cx="1.762" cy="1.762" rx="1.762" ry="1.762" transform="translate(888.25 1474.914) rotate(22)" fill="#f0b033"/>
    <path id="Trazado_628558" data-name="Trazado 628558" d="M866.3,1826.7c3.373-2.588,3.072-1.432,7.805-6.772s1.661.551,1.661.551-10.421,11.122-15.154,9.8S862.922,1829.291,866.3,1826.7Z" transform="matrix(0.588, 0.809, -0.809, 0.588, 2194.482, -354.28)" fill="#ffc107"/>
    <ellipse id="Elipse_5334" data-name="Elipse 5334" cx="1.762" cy="1.762" rx="1.762" ry="1.762" transform="matrix(0.588, 0.809, -0.809, 0.588, 1219.614, 1416.574)" fill="#f0b033"/>
    <g id="Enmascarar_grupo_185" data-name="Enmascarar grupo 185" transform="translate(1144 1457)" clip-path="url(#clip-path-6)">
      <g id="Grupo_908241" data-name="Grupo 908241" transform="matrix(0.087, -0.996, 0.996, 0.087, 59.81, 140.325)">
        <path id="Trazado_628559" data-name="Trazado 628559" d="M98.407,3.413c-3.255,2.984-5.028,7.207-6.6,11.237C90.987,16.757,90.275,18.914,89.4,21a15.03,15.03,0,0,1-1.98,3.538,17.283,17.283,0,0,0-1.207,1.5,2.534,2.534,0,0,1-1.844-.522c-.888-.738-.82-2.038-.727-3.07a19.046,19.046,0,0,1,1.863-6.894,25.145,25.145,0,0,1,4.428-5.915A24.453,24.453,0,0,1,92.475,7.3a11.387,11.387,0,0,0,2.419-1.991c2.49-3.452-4.631-3.811-6.334-3.783A21.055,21.055,0,0,0,76.8,4.837c-6.043,4.19-9.168,11.9-11.3,18.664-1.27,4.025-2.335,8.093-3.914,12.017a38.422,38.422,0,0,1-2.635,5.672c-.3.5-.76,1.368-1.393,1.043-.565-.289-.694-2.1-.793-2.681-1.634-9.72,2.047-19.566,7.413-27.528a27.438,27.438,0,0,1,4.013-4.756c.818-.774,2.019-1.981,1.454-3.231-1.353-2.99-7.4-1.284-9.559-.543-7.208,2.473-15.04,7.58-17.276,15.237-1.4,4.789-1.1,9.849-.8,14.765.325,5.416.576,10.855,1.129,16.254.315,3.059.641,6.11-.4,9.079-.353,1-.921,2.452-2.014,2.856-1.594.59-2.9-1.282-3.589-2.466-2.266-3.913-2.169-8.758-2.382-13.132-.485-9.9.092-19.693,3.011-29.215a1.375,1.375,0,0,0-.795-2.291c-3.4-.621-6.8,1.675-9.559,3.342a32.887,32.887,0,0,0-8.844,7.61c-4.959,6.191-6.176,14.316-5.33,22.024,1,9.093,5.422,17.741,8.048,26.427.762,2.519,1.944,5.55,1.8,8.234-.244,4.5-6.162-1.007-7.26-2.493A48.735,48.735,0,0,1,9.28,67.339C7.6,62.649,6.875,57.811,5.862,52.963a.675.675,0,0,0-.208-.355c-.472-1.357-1.872-1.533-3.035-.188C.243,55.167.163,59.457.049,62.869-.236,71.347.66,80.3,4.571,87.938c3.71,7.25,9.779,13.382,16.493,17.9a62.518,62.518,0,0,0,11.061,6.049,52.428,52.428,0,0,0,12.46,3,103.171,103.171,0,0,0,13.862,1.386c3.445.023,7.572-.169,10.611-2.063,2.315-.311,4.615-.665,6.891-1.042,10.638-1.759,22.065-5.323,29.333-13.764,2.469-2.868,5.164-6.953,5.481-10.813a3.39,3.39,0,0,0-1.806-3.65c-2.055-.841-4.526.458-6.465,1.071-5.807,1.836-12.189,1.838-18.22,1.512-5.425-.294-11.1-1.2-15.8-4.093a16.352,16.352,0,0,1-6.138-6.166c-1.869-3.838,2.214-5.447,5.4-5.089,3.422.386,6.756,1.622,10.158,2.21,3.6.621,7.236.937,10.872,1.3,11.443,1.135,23.771-.726,32.349-9.089a22.757,22.757,0,0,0,6.554-11.3c.372-1.91.261-4.051-1.223-5.471-1.811-1.733-4.366-1.223-6.379-.138-3.028,1.633-5.727,3.813-8.8,5.41a68.78,68.78,0,0,1-10.007,4.445A28.177,28.177,0,0,1,91.6,60.648a41.824,41.824,0,0,1-8.045-.533c-.885-.188-6.548-2.505-4.99-3.408,1.29-.748,4.055-.122,5.511-.1a76.575,76.575,0,0,0,10.816-.122,59.517,59.517,0,0,0,10.674-2.751c5.691-1.831,10.994-4.052,15.564-8a31.948,31.948,0,0,0,9.311-13.371c.641-1.789,1.307-3.949.091-5.624a1.332,1.332,0,0,0-1.6-.317c-2.216,1.37-4.778,1.964-7.066,3.189a55.355,55.355,0,0,1-8.664,4.165,12.131,12.131,0,0,1-10.05-.973c-.4-1.836,1.087-3.308,2.726-4.112,3.434-1.683,7.266-2.344,10.692-4.129a19.282,19.282,0,0,0,7.819-7.106,34.673,34.673,0,0,0,2.649-5.888c.759-2.036,2.05-4.994,1.378-7.178a1.011,1.011,0,0,0-.083-.175.327.327,0,0,0-.106-.316c-1.769-1.575-4.42-2.077-6.684-2.493-2.8-.513-5.652-.884-8.479-1.168C107.963-.278,102.4-.248,98.407,3.413ZM62.846,89.653c2.715.53,10.126,3.584,8.3,7.413-1.847,3.877-9.185,2.649-12.338,2.157-5.216-.813-13.032-2.48-17.186-6.046-2.23-1.916-.913-3.07,1.347-3.463a63.571,63.571,0,0,1,8.221-.9A49.855,49.855,0,0,1,62.846,89.653Z" transform="translate(0 0)" fill="#4f9638"/>
        <g id="Grupo_908240" data-name="Grupo 908240" transform="translate(16.295 4.87)" opacity="0.7">
          <path id="Trazado_628560" data-name="Trazado 628560" d="M77.428,2.973c-2.264,1.82-4.5,3.675-6.729,5.541-6.034,5.055-12.086,10.073-18.024,15.237C47.226,28.489,41.9,33.4,36.776,38.489c-6.385,6.337-12.654,12.948-18.518,19.785a48.628,48.628,0,0,1-3.273-8.564c-.083-.278-.577-.3-.555.036a18.648,18.648,0,0,0,1.062,5.283,30.05,30.05,0,0,0,1.922,4.218c-.152.18-.311.353-.463.533A249.473,249.473,0,0,0,.112,81.313a.623.623,0,0,0,1.031.7C6,75.281,11.762,69.135,17.343,63c6.489-7.13,13.206-14.092,19.927-21C47.542,31.439,58.627,21.519,69.689,11.8,73.855,8.138,78.376,4.932,82.6,1.367c.73-.616-.071-1.614-.874-1.311A16.6,16.6,0,0,0,77.428,2.973Z" transform="translate(0 19.225)" fill="#0a481c"/>
          <path id="Trazado_628561" data-name="Trazado 628561" d="M3.781,40.017A101.623,101.623,0,0,1,1.205,19.6c-.084-3.24-.013-6.486.064-9.724.075-3.126.7-6.534.159-9.623A.333.333,0,0,0,.794.214C-.143,3.168.1,6.724.026,9.794c-.083,3.494.041,6.977.263,10.463A109.975,109.975,0,0,0,3.351,40.1C3.418,40.378,3.847,40.293,3.781,40.017Z" transform="translate(8.566 19.24)" fill="#0a481c"/>
          <path id="Trazado_628562" data-name="Trazado 628562" d="M.065,23.274A72.695,72.695,0,0,0,.819,38C1.5,41.985,2.145,45.9,4,49.546c.123.242.514.038.372-.185-2.113-3.325-2.03-7.755-2.613-11.549a73.205,73.205,0,0,1-.671-14.1c.3-8.085,1.731-16,5.428-23.238a.307.307,0,0,0-.454-.4C3.491,1.878,3.125,6.691,2.436,9.5c-.494,2.011-1.315,3.932-1.75,5.957A43.434,43.434,0,0,0,.065,23.274Z" transform="translate(32.348 7.197)" fill="#0a481c"/>
          <path id="Trazado_628563" data-name="Trazado 628563" d="M3.166,5.766C2.534,7.7,1.88,9.632,1.333,11.6.274,15.4-.431,19.3.3,23.227a.489.489,0,0,0,.959-.2c-.771-4.083.061-8.181,1.292-12.087.591-1.875,1.261-3.722,1.9-5.582C4.967,3.837,5.95,1.879,5.685.247A.321.321,0,0,0,5.111.132a7.9,7.9,0,0,0-.988,2.591C3.823,3.743,3.5,4.756,3.166,5.766Z" transform="translate(54.429 13.398)" fill="#0a481c"/>
          <path id="Trazado_628564" data-name="Trazado 628564" d="M5.241,1.908a22.13,22.13,0,0,0-2.122,2.56A38.53,38.53,0,0,0,.032,10.236c-.174.366.413.649.627.316C1.805,8.775,3.08,7.1,4.375,5.428,5,4.615,5.654,3.808,6.358,3.059c.688-.732,1.728-1.437,2.077-2.4A.507.507,0,0,0,7.862,0C6.821.141,5.934,1.185,5.241,1.908Z" transform="translate(60.965)" fill="#0a481c"/>
          <path id="Trazado_628565" data-name="Trazado 628565" d="M18.954,6.041c-5.84.984-12.46,1.2-18.18-.511C.052,5.313-.337,6.4.384,6.636c5.808,1.856,12.241,1.5,18.209.649A36.712,36.712,0,0,0,27.248,4.8c2.865-1.17,6.077-2.379,8.5-4.33a.271.271,0,0,0-.231-.466c-2.718.561-5.2,2.132-7.732,3.237A37.881,37.881,0,0,1,18.954,6.041Z" transform="translate(68.901 33.587)" fill="#0a481c"/>
          <path id="Trazado_628566" data-name="Trazado 628566" d="M.146,8.457c-.421.4.158,1.071.594.682A77.473,77.473,0,0,1,13.657.35c.17-.1.1-.4-.117-.344A22.7,22.7,0,0,0,6.4,3.434,46.8,46.8,0,0,0,.146,8.457Z" transform="translate(85.14 7.329)" fill="#0a481c"/>
          <path id="Trazado_628567" data-name="Trazado 628567" d="M3.421.558c-.389.242-.788.49-1.164.752-.724.511-1.44,1.024-2.188,1.5a.135.135,0,0,0,.121.241C1.031,2.721,1.9,2.4,2.714,2A9.556,9.556,0,0,0,3.9,1.279a5.735,5.735,0,0,0,.92-.937c.15-.172-.1-.416-.28-.321C4.176.211,3.768.34,3.421.558Z" transform="translate(99.736 3.577)" fill="#0a481c"/>
          <path id="Trazado_628568" data-name="Trazado 628568" d="M10.258,4.744A13.6,13.6,0,0,0,5.449,2.65,10.593,10.593,0,0,1,.794.146a.452.452,0,0,0-.68.594,10.529,10.529,0,0,0,4.6,2.9c1.722.63,3.514,1.132,5.277,1.641A.307.307,0,0,0,10.258,4.744Z" transform="translate(47.742 56.359)" fill="#0a481c"/>
          <path id="Trazado_628569" data-name="Trazado 628569" d="M33.3,2.818a24.693,24.693,0,0,1-4.26,2.726A34.782,34.782,0,0,1,19.7,8.585,51.732,51.732,0,0,1,.2,8.252c-.214-.044-.292.325-.078.378a49.75,49.75,0,0,0,20.3,1,32.83,32.83,0,0,0,9.635-3.117C32.576,5.218,36.1,3.254,37.2.49a.37.37,0,0,0-.51-.449A26.533,26.533,0,0,0,33.3,2.818Z" transform="translate(63.589 54.399)" fill="#0a481c"/>
        </g>
      </g>
      <g id="Grupo_908250" data-name="Grupo 908250" transform="translate(149.553 115.334) rotate(-121)">
        <path id="Trazado_628570" data-name="Trazado 628570" d="M90.408,53.394a11.08,11.08,0,0,0,2.664-8.368c-.308-3.625-2.243-6.34-4.709-8.874A24.712,24.712,0,0,0,85.046,33.3h-.01a33.405,33.405,0,0,0-3.245-2.081h-.01c-1.212-.694-2.467-1.324-3.744-1.936-2.047-.977-4.133-1.841-6.193-2.77a10.636,10.636,0,0,1-5.06-4.112c-1.1-1.827-1.817-3.9-2.815-5.772l-.383-.686a9.993,9.993,0,0,0-2.959-3.305c-3.308-2.261-7.05-1.953-10.851-1.776a18.246,18.246,0,0,1-7.149-.741,14,14,0,0,1-5.052-3.5c-.127-.108-.244-.234-.361-.351-.162-.16-.315-.329-.477-.488a31.069,31.069,0,0,0-3.674-3.511A11.4,11.4,0,0,0,27.515.213c-4.56-.558-9.123.113-13.66.482-1.041.081-2.089.123-3.108.3A.633.633,0,0,0,10.166.58c-1.612-.093-3,1.033-4.131,2.071A18.327,18.327,0,0,0,3.729,5.205a16.467,16.467,0,0,0-1,1.489V6.7A19.5,19.5,0,0,0,.01,17.262c.227,7.014,4.349,13.626,11.039,15.93.265.089.542.181.827.263h.01c.315.084.63.168.966.234a53.372,53.372,0,0,0,6.457.51,21.934,21.934,0,0,1,7.164,1.64A9.221,9.221,0,0,1,28.388,37a11.1,11.1,0,0,1,1.5,1.4c.01,0,.01,0,.01.01a36.981,36.981,0,0,1,4.112,6.035c1.841,3.019,3.794,5.98,7.3,7.193,3.956,1.378,8.422.221,12.443-.279.395-.046.779-.092,1.172-.128.336-.042.67-.073,1-.1a24.042,24.042,0,0,1,4.819.023,21.953,21.953,0,0,1,6.678,2.215,53.615,53.615,0,0,0,8.7,3.561c.335.087.669.172,1.006.238a17.025,17.025,0,0,0,2.624.371A13.616,13.616,0,0,0,90.408,53.394Z" transform="translate(0.052)" fill="#36753c"/>
        <g id="Grupo_908242" data-name="Grupo 908242" transform="translate(0 4.525)">
          <path id="Trazado_628571" data-name="Trazado 628571" d="M90.486,45.5c-1.256-.778-2.33-1.847-3.519-2.72-2.581-1.9-5.311-3.618-7.994-5.363-8.458-5.5-17.046-10.834-25.755-15.927-3.3-1.929-6.594-3.864-10.056-5.492-2.824-1.328-5.7-2.547-8.581-3.737C27.846,9.479,21.043,6.87,14.216,4.336c-2.979-1.1-5.963-2.275-9-3.216C4.223.812,3.228.5,2.212.269a10.7,10.7,0,0,0-1.061-.2C.944.043.331-.053.758.04.061-.113-.333.941.371,1.1c-.073-.017.27.117.411.186.253.124.5.245.761.362.79.358,1.6.666,2.406.981,2.465.962,4.971,1.818,7.455,2.731,6.732,2.473,13.449,4.989,20.106,7.66a168.294,168.294,0,0,1,17.478,7.966q13.9,7.511,27.2,16.009c4.659,2.979,9.186,6.324,14.178,8.732.131.064.242-.15.118-.227Z" fill="#4f9638"/>
        </g>
        <g id="Grupo_908243" data-name="Grupo 908243" transform="translate(57.839 28.441)">
          <path id="Trazado_628572" data-name="Trazado 628572" d="M1.33,1.1a3.086,3.086,0,0,1-1.122.006A.237.237,0,0,1,.127.663,1.192,1.192,0,0,1,.382.537,10.459,10.459,0,0,1,4.325.04,45.792,45.792,0,0,1,9.1.089a66.956,66.956,0,0,1,9.886,1.4q2.531.559,5.007,1.288H24a33.42,33.42,0,0,1,3.245,2.081,77.8,77.8,0,0,0-8.534-2.425A67.04,67.04,0,0,0,9.027,1,44.472,44.472,0,0,0,4.475.833C3.643.852,2.82.912,1.991,1.01,1.766,1.03,1.548,1.071,1.33,1.1Z" transform="translate(0)" fill="#4f9638"/>
        </g>
        <g id="Grupo_908244" data-name="Grupo 908244" transform="translate(43.176 21.601)">
          <path id="Trazado_628573" data-name="Trazado 628573" d="M11.809,29.632c-.2-.261-.405-.531-.608-.792A51.188,51.188,0,0,1,5.466,20.1C2.58,14.348-.29,7.576.024,1,.033.763.052.54.07.308a.351.351,0,0,1,.7.056c-.017.321-.023.643-.021.974C.734,7.69,3.454,14.166,6.259,19.713a54.052,54.052,0,0,0,5.717,8.712c.282.365.565.729.836,1.1C12.479,29.559,12.144,29.59,11.809,29.632Z" fill="#4f9638"/>
        </g>
        <g id="Grupo_908245" data-name="Grupo 908245" transform="translate(67.255 35.331)">
          <path id="Trazado_628574" data-name="Trazado 628574" d="M9.939,21.835c-.337-.066-.671-.152-1.005-.238A49.611,49.611,0,0,1,5.3,15.749a40,40,0,0,1-3-7.231C1.522,5.926.949,3.284.115.708.085.6.044.5.014.388-.086.067.382-.168.492.154s.238.663.347.994C2.347,5.623,3.259,10.215,5.4,14.478a50.528,50.528,0,0,0,4.049,6.684C9.614,21.39,9.771,21.617,9.939,21.835Z" fill="#4f9638"/>
        </g>
        <g id="Grupo_908246" data-name="Grupo 908246" transform="translate(40.743 15.861)">
          <path id="Trazado_628575" data-name="Trazado 628575" d="M23.278.772a71.791,71.791,0,0,0-10.76.456A60.173,60.173,0,0,0,6.3,2.309a26.112,26.112,0,0,0-3.33.987c-.624.231-1.215.535-1.83.777C.9,4.17.65,4.257.4,4.334c-.36.1-.524-.394-.292-.609L.2,3.644c1.414-1.3,3.7-1.814,5.512-2.261A48.315,48.315,0,0,1,12.348.326,73.348,73.348,0,0,1,22.9.086Z" fill="#4f9638"/>
        </g>
        <g id="Grupo_908247" data-name="Grupo 908247" transform="translate(25.884 14.522)">
          <path id="Trazado_628576" data-name="Trazado 628576" d="M4.06,23.881a11.113,11.113,0,0,0-1.5-1.4A53.78,53.78,0,0,1,.446,12.725a33.9,33.9,0,0,1,.127-11.7C.636.739.708.462.789.186c.085-.315.641-.2.576.125s-.121.634-.166.952A33.353,33.353,0,0,0,.931,6.091,53.268,53.268,0,0,0,3.473,22.125C3.658,22.716,3.855,23.3,4.06,23.881Z" fill="#4f9638"/>
        </g>
        <g id="Grupo_908248" data-name="Grupo 908248" transform="translate(18.144 5.78)">
          <path id="Trazado_628577" data-name="Trazado 628577" d="M.037,4.926a3.07,3.07,0,0,1,.18-.288C1.262,3.192,3.833,2.524,5.368,2.015A44.006,44.006,0,0,1,11.4.5a37.315,37.315,0,0,1,7.241-.49c.162.159.315.328.477.488.117.117.233.243.361.351a.21.21,0,0,1-.078,0,38.084,38.084,0,0,0-7.971.586A43.6,43.6,0,0,0,5.29,3.091,24.082,24.082,0,0,0,2.551,4.244c-.459.235-.9.521-1.369.756h-.01A4.456,4.456,0,0,1,.3,5.338C.056,5.4-.066,5.112.037,4.926Z" fill="#36753c"/>
        </g>
        <g id="Grupo_908249" data-name="Grupo 908249" transform="translate(8.752 8.747)">
          <path id="Trazado_628578" data-name="Trazado 628578" d="M3.177,24.708c-.286-.082-.562-.173-.828-.263-.394-1.623-.708-3.268-.993-4.922A79.733,79.733,0,0,1,.17,10.06C.014,6.955-.283,3.438.666.422A1.525,1.525,0,0,1,.732.213c.13-.409.755-.172.624.236A1.36,1.36,0,0,0,1.3.65,16.81,16.81,0,0,0,.8,5.516C.8,7.312.834,9.1.959,10.9c.206,2.846.668,5.674,1.149,8.494C2.412,21.172,2.744,22.956,3.177,24.708Z" transform="translate(0 0)" fill="#36753c"/>
        </g>
      </g>
      <g id="Grupo_908256" data-name="Grupo 908256" transform="matrix(-0.139, -0.99, 0.99, -0.139, 41.932, 151.066)">
        <path id="Trazado_628579" data-name="Trazado 628579" d="M38.717,4.686a82.28,82.28,0,0,0-14.354,8.749,132.088,132.088,0,0,0-13.88,12.043A29.463,29.463,0,0,0,5.2,32.427C3.716,35.178,2.308,38.561.514,40.647c-1.033,1.2-.387,4.429.856,3.734a5.214,5.214,0,0,0,.446-.327,166.837,166.837,0,0,1,12.694,11.74c3.9,3.812,7.869,7.352,11.634,11.608C32.419,74.494,39.8,84.824,47.609,83.781c3.448-.462,6.611-3.761,9.293-7.593,3.1-4.423,5.442-11.465,9.478-13.053,6.831-2.688,13.631,3.837,20.45,3.858C91.094,67,97.8,66.086,99.229,56.9c1.647-10.616-3.49-20.519-8.233-24.62a39.569,39.569,0,0,0-8.988-5.466c-3.626-1.772-6.787-3.629-9.842-7.847C69.191,14.862,66.578,9.939,63.527,6c-3.3-4.256-7.026-6.093-11.04-6C47.87.112,43.155,2.549,38.717,4.686Z" transform="translate(0.712)" fill="#add031"/>
        <g id="Grupo_908251" data-name="Grupo 908251" transform="translate(0 35.203)">
          <path id="Trazado_628580" data-name="Trazado 628580" d="M97.945,16.749c-5.923-2.8-11.66-6.812-17.649-9.184a98.948,98.948,0,0,0-18.728-5.1C55.051,1.277,48.5,1.318,41.96.558A66.627,66.627,0,0,0,22.244.918C15,2.212,7.812,3.244.661,5.773c-.86.3-.9,3.04,0,3.275,2.808.735,5.684-1.4,8.471-2,3.356-.716,6.7-1.108,10.065-1.624,6.473-.992,12.743-1.975,19.249-1.34C51.426,5.352,64.593,5.1,77.457,8.951c6.881,2.059,13.438,6.72,20.249,9.392.562.222.8-1.327.239-1.594Z" fill="#36753c"/>
        </g>
        <g id="Grupo_908252" data-name="Grupo 908252" transform="translate(24.559 38.346)">
          <path id="Trazado_628581" data-name="Trazado 628581" d="M27.891,38.034A101.285,101.285,0,0,1,13.082,20.757c-2.268-3.261-4.469-6.7-6.547-10.365C5.544,8.647,4.584,6.848,3.627,5.04,2.689,3.267,1.771,1.13.534.063.283-.153-.09.212.02.79A18.167,18.167,0,0,0,2.093,6c1.054,2.032,2.18,3.95,3.312,5.836,2.173,3.629,4.408,7.131,6.732,10.427A87.916,87.916,0,0,0,27.45,39.423c.5.416.951-.927.441-1.389Z" transform="translate(0 0)" fill="#36753c"/>
        </g>
        <g id="Grupo_908253" data-name="Grupo 908253" transform="translate(35.506 10.761)">
          <path id="Trazado_628582" data-name="Trazado 628582" d="M.643,26.465C4.661,20.977,8.665,15.573,13.1,11.253a45.2,45.2,0,0,1,7-5.666c2.414-1.562,4.931-2.561,7.293-4.353C27.723.977,27.7.042,27.3.015c-2.538-.173-5.019,1.17-7.4,2.678A46.8,46.8,0,0,0,12.7,8.375,64.772,64.772,0,0,0,.115,25.2c-.33.627.116,1.824.529,1.262Z" fill="#36753c"/>
        </g>
        <g id="Grupo_908254" data-name="Grupo 908254" transform="translate(74.363 42.774)">
          <path id="Trazado_628583" data-name="Trazado 628583" d="M14.972,17.824A39.743,39.743,0,0,1,7.182,9.883c-1.226-1.564-2.39-3.25-3.525-5.026-.573-.9-1.136-1.81-1.7-2.732C1.486,1.342,1.05.38.426.031.1-.15-.077.5.032.974A8.441,8.441,0,0,0,1.46,3.7q.857,1.358,1.731,2.678C4.37,8.145,5.571,9.891,6.8,11.544a27.679,27.679,0,0,0,7.972,7.609c.467.27.64-1.019.2-1.329Z" transform="translate(0 0)" fill="#36753c"/>
        </g>
        <g id="Grupo_908255" data-name="Grupo 908255" transform="translate(60.531 32.839)">
          <path id="Trazado_628584" data-name="Trazado 628584" d="M22.757.372C18.741.267,14.73-.336,10.719.258a18.833,18.833,0,0,0-5.6,1.616,18.715,18.715,0,0,0-2.88,1.735A5.684,5.684,0,0,0,.077,5.735c-.158.33-.066.978.211.943.825-.113,1.591-.986,2.374-1.467A17.194,17.194,0,0,1,5.417,3.847a28.076,28.076,0,0,1,5.86-1.589,86.366,86.366,0,0,1,11.48-.921c.336-.005.338-.954,0-.965Z" fill="#36753c"/>
        </g>
      </g>
    </g>
  </g>
</svg>
